<svg width="215" height="209" viewBox="0 0 215 209" fill="none" xmlns="http://www.w3.org/2000/svg">
<path d="M206.272 150.586C206.769 150.827 206.976 151.426 206.735 151.922L186.97 192.643C186.728 193.139 186.13 193.347 185.633 193.105L156.499 178.964C156.002 178.723 155.795 178.124 156.036 177.628L175.802 136.907C176.043 136.41 176.641 136.203 177.138 136.444L206.272 150.586Z" fill="white" fill-opacity="0.1"/>
<path d="M78.2666 140.99L157.476 174.662L174.362 139.873L98.9056 98.4701C98.9056 98.4701 94.8108 77.3778 63.8776 62.3628L-48.2553 7.93324C-48.2553 7.93324 -63.722 0.425773 -71.227 15.8874L-80.6084 35.2144L-91.8661 58.4068C-99.3711 73.8684 -89.0601 78.8734 -83.9045 81.3759L28.2284 135.805C52.9749 147.817 71.8983 144.267 78.2666 140.99Z" fill="white" fill-opacity="0.1"/>
</svg>
