<svg width="300" height="100" viewBox="0 0 300 100" fill="none" xmlns="http://www.w3.org/2000/svg">
<g clip-path="url(#clip0_228_2677)">
<rect width="300" height="100" rx="10" fill="url(#paint0_linear_228_2677)"/>
<path d="M13.1588 36.5587L-0.535248 39.4694L-0.951071 37.5132L12.743 34.6024L13.1588 36.5587ZM3.1317 18.2432C1.90902 18.5031 0.893488 19.3528 0.434794 20.5135L-1.48972 25.3596L0.882403 26.9L2.61255 25.1317C2.97848 24.737 3.62944 24.7213 4.02831 25.1068C4.05411 25.132 4.08969 25.1551 4.09801 25.1942C4.51412 25.7089 4.55414 26.4263 4.19213 26.9837L0.494997 32.6768C0.0734469 33.3389 0.260567 34.2193 0.922681 34.6408C1.23106 34.8411 1.61646 34.9227 1.97837 34.8458L10.3709 33.0619L7.87594 21.3241C7.65537 20.2865 7.03162 19.3789 6.1419 18.8011C5.25219 18.2233 4.16938 18.0226 3.1317 18.2432Z" fill="white" fill-opacity="0.2"/>
<path d="M55.2086 -15.0258L41.5145 -12.115C40.4341 -11.8854 39.7444 -10.8234 39.9741 -9.74292L42.8848 3.95114C43.1145 5.03158 44.1765 5.72127 45.2569 5.49162L58.951 2.58085C60.0314 2.3512 60.7211 1.28917 60.4915 0.208733L57.5807 -13.4853C57.3511 -14.5658 56.289 -15.2555 55.2086 -15.0258Z" stroke="white" stroke-opacity="0.2" stroke-width="2" stroke-linecap="round" stroke-linejoin="round"/>
<path d="M47.6408 -0.126785C47.9109 -0.184198 48.0834 -0.449706 48.026 -0.719814C47.9685 -0.989922 47.703 -1.16235 47.4329 -1.10493C47.1628 -1.04752 46.9904 -0.782011 47.0478 -0.511903C47.1052 -0.241795 47.3707 -0.0693715 47.6408 -0.126785Z" stroke="white" stroke-opacity="0.2" stroke-width="2" stroke-linecap="round" stroke-linejoin="round"/>
<path d="M23.2086 69.9742L9.51452 72.885C8.43409 73.1146 7.7444 74.1766 7.97405 75.2571L10.8848 88.9511C11.1145 90.0316 12.1765 90.7213 13.2569 90.4916L26.951 87.5809C28.0314 87.3512 28.7211 86.2892 28.4915 85.2087L25.5807 71.5147C25.3511 70.4342 24.289 69.7445 23.2086 69.9742Z" stroke="white" stroke-opacity="0.2" stroke-width="2" stroke-linecap="round" stroke-linejoin="round"/>
<path d="M21.0326 76.5707C21.3027 76.5133 21.4751 76.2478 21.4177 75.9777C21.3603 75.7076 21.0948 75.5352 20.8246 75.5926C20.5545 75.65 20.3821 75.9155 20.4395 76.1856C20.4969 76.4557 20.7624 76.6281 21.0326 76.5707Z" stroke="white" stroke-opacity="0.2" stroke-width="2" stroke-linecap="round" stroke-linejoin="round"/>
<path d="M18.3368 80.7221C18.6069 80.6647 18.7793 80.3992 18.7219 80.1291C18.6645 79.859 18.399 79.6865 18.1288 79.7439C17.8587 79.8014 17.6863 80.0669 17.7437 80.337C17.8011 80.6071 18.0666 80.7795 18.3368 80.7221Z" stroke="white" stroke-opacity="0.2" stroke-width="2" stroke-linecap="round" stroke-linejoin="round"/>
<path d="M15.6408 84.8732C15.9109 84.8158 16.0834 84.5503 16.026 84.2802C15.9685 84.0101 15.703 83.8377 15.4329 83.8951C15.1628 83.9525 14.9904 84.218 15.0478 84.4881C15.1052 84.7582 15.3707 84.9306 15.6408 84.8732Z" stroke="white" stroke-opacity="0.2" stroke-width="2" stroke-linecap="round" stroke-linejoin="round"/>
<path d="M64.3555 57.4302C64.0961 57.4854 63.8254 57.4352 63.6029 57.2908C63.3805 57.1463 63.2246 56.9194 63.1694 56.66L61.0903 46.8785C60.6745 44.9222 61.2888 43.0026 62.215 42.5501L61.2794 38.1484C61.2518 38.0187 61.2769 37.8834 61.3491 37.7722C61.4213 37.661 61.5348 37.583 61.6645 37.5554L62.6426 37.3475C62.7723 37.3199 62.9077 37.345 63.0189 37.4172C63.1301 37.4895 63.2081 37.6029 63.2357 37.7326L64.1713 42.1343C65.2014 42.1709 66.5434 43.6748 66.9592 45.6311L69.0383 55.4125C69.0935 55.672 69.0433 55.9427 68.8988 56.1651C68.7544 56.3875 68.5275 56.5434 68.2681 56.5986L64.3555 57.4302Z" fill="white" fill-opacity="0.2"/>
<path d="M119.159 22.5589L105.465 25.4697L105.049 23.5134L118.743 20.6026L119.159 22.5589ZM109.132 4.24344C107.909 4.50333 106.893 5.35304 106.435 6.51378L104.51 11.3598L106.882 12.9003L108.613 11.1319C108.978 10.7372 109.629 10.7215 110.028 11.107C110.054 11.1322 110.09 11.1553 110.098 11.1944C110.514 11.7092 110.554 12.4265 110.192 12.984L106.495 18.6771C106.073 19.3392 106.261 20.2195 106.923 20.6411C107.231 20.8413 107.616 20.923 107.978 20.846L116.371 19.0622L113.876 7.32439C113.655 6.28671 113.032 5.37914 112.142 4.80135C111.252 4.22356 110.169 4.02288 109.132 4.24344Z" fill="white" fill-opacity="0.2"/>
<path d="M87.1588 107.559L73.4648 110.47L73.0489 108.513L86.743 105.603L87.1588 107.559ZM77.1317 89.2434C75.909 89.5033 74.8935 90.353 74.4348 91.5138L72.5103 96.3598L74.8824 97.9003L76.6125 96.1319C76.9785 95.7372 77.6294 95.7215 78.0283 96.107C78.0541 96.1322 78.0897 96.1553 78.098 96.1944C78.5141 96.7092 78.5541 97.4265 78.1921 97.984L74.495 103.677C74.0734 104.339 74.2606 105.22 74.9227 105.641C75.2311 105.841 75.6165 105.923 75.9784 105.846L84.3709 104.062L81.8759 92.3244C81.6554 91.2867 81.0316 90.3791 80.1419 89.8014C79.2522 89.2236 78.1694 89.0229 77.1317 89.2434Z" fill="white" fill-opacity="0.2"/>
<path d="M129.209 55.9742L115.515 58.885C114.434 59.1146 113.744 60.1766 113.974 61.2571L116.885 74.9511C117.114 76.0316 118.177 76.7213 119.257 76.4916L132.951 73.5809C134.031 73.3512 134.721 72.2892 134.491 71.2087L131.581 57.5147C131.351 56.4342 130.289 55.7445 129.209 55.9742Z" stroke="white" stroke-opacity="0.2" stroke-width="2" stroke-linecap="round" stroke-linejoin="round"/>
<path d="M127.033 62.5707C127.303 62.5133 127.475 62.2478 127.418 61.9777C127.36 61.7076 127.095 61.5352 126.825 61.5926C126.555 61.65 126.382 61.9155 126.44 62.1856C126.497 62.4557 126.762 62.6281 127.033 62.5707Z" stroke="white" stroke-opacity="0.2" stroke-width="2" stroke-linecap="round" stroke-linejoin="round"/>
<path d="M124.337 66.7221C124.607 66.6647 124.779 66.3992 124.722 66.1291C124.664 65.859 124.399 65.6865 124.129 65.7439C123.859 65.8014 123.686 66.0669 123.744 66.337C123.801 66.6071 124.067 66.7795 124.337 66.7221Z" stroke="white" stroke-opacity="0.2" stroke-width="2" stroke-linecap="round" stroke-linejoin="round"/>
<path d="M121.641 70.8732C121.911 70.8158 122.083 70.5503 122.026 70.2802C121.969 70.0101 121.703 69.8377 121.433 69.8951C121.163 69.9525 120.99 70.218 121.048 70.4881C121.105 70.7582 121.371 70.9306 121.641 70.8732Z" stroke="white" stroke-opacity="0.2" stroke-width="2" stroke-linecap="round" stroke-linejoin="round"/>
<path d="M170.355 43.4302C170.096 43.4854 169.825 43.4352 169.603 43.2908C169.381 43.1463 169.225 42.9194 169.169 42.66L167.09 32.8785C166.674 30.9222 167.289 29.0026 168.215 28.5501L167.279 24.1484C167.252 24.0187 167.277 23.8834 167.349 23.7722C167.421 23.661 167.535 23.583 167.664 23.5554L168.643 23.3475C168.772 23.3199 168.908 23.345 169.019 23.4172C169.13 23.4895 169.208 23.6029 169.236 23.7326L170.171 28.1343C171.201 28.1709 172.543 29.6748 172.959 31.6311L175.038 41.4125C175.093 41.672 175.043 41.9427 174.899 42.1651C174.754 42.3875 174.528 42.5434 174.268 42.5986L170.355 43.4302Z" fill="white" fill-opacity="0.2"/>
<path d="M225.159 8.55893L211.465 11.4697L211.049 9.5134L224.743 6.60263L225.159 8.55893ZM215.132 -9.75656C213.909 -9.49667 212.893 -8.64696 212.435 -7.48622L210.51 -2.6402L212.882 -1.09973L214.613 -2.86809C214.978 -3.26279 215.629 -3.27848 216.028 -2.89299C216.054 -2.8678 216.09 -2.84469 216.098 -2.80557C216.514 -2.29083 216.554 -1.57348 216.192 -1.01603L212.495 4.67705C212.073 5.33917 212.261 6.2195 212.923 6.64105C213.231 6.84131 213.616 6.92297 213.978 6.84604L222.371 5.06216L219.876 -6.67561C219.655 -7.71329 219.032 -8.62086 218.142 -9.19865C217.252 -9.77644 216.169 -9.97712 215.132 -9.75656Z" fill="white" fill-opacity="0.2"/>
<path d="M193.159 93.5589L179.465 96.4697L179.049 94.5134L192.743 91.6026L193.159 93.5589ZM183.132 75.2434C181.909 75.5033 180.893 76.353 180.435 77.5138L178.51 82.3598L180.882 83.9003L182.613 82.1319C182.978 81.7372 183.629 81.7215 184.028 82.107C184.054 82.1322 184.09 82.1553 184.098 82.1944C184.514 82.7092 184.554 83.4265 184.192 83.984L180.495 89.6771C180.073 90.3392 180.261 91.2195 180.923 91.6411C181.231 91.8413 181.616 91.923 181.978 91.846L190.371 90.0622L187.876 78.3244C187.655 77.2867 187.032 76.3791 186.142 75.8014C185.252 75.2236 184.169 75.0229 183.132 75.2434Z" fill="white" fill-opacity="0.2"/>
<path d="M235.209 41.9742L221.515 44.885C220.434 45.1146 219.744 46.1766 219.974 47.2571L222.885 60.9511C223.114 62.0316 224.177 62.7213 225.257 62.4916L238.951 59.5809C240.031 59.3512 240.721 58.2892 240.491 57.2087L237.581 43.5147C237.351 42.4342 236.289 41.7445 235.209 41.9742Z" stroke="white" stroke-opacity="0.2" stroke-width="2" stroke-linecap="round" stroke-linejoin="round"/>
<path d="M233.033 48.5707C233.303 48.5133 233.475 48.2478 233.418 47.9777C233.36 47.7076 233.095 47.5352 232.825 47.5926C232.555 47.65 232.382 47.9155 232.44 48.1856C232.497 48.4557 232.762 48.6281 233.033 48.5707Z" stroke="white" stroke-opacity="0.2" stroke-width="2" stroke-linecap="round" stroke-linejoin="round"/>
<path d="M230.337 52.7221C230.607 52.6647 230.779 52.3992 230.722 52.1291C230.664 51.859 230.399 51.6865 230.129 51.7439C229.859 51.8014 229.686 52.0669 229.744 52.337C229.801 52.6071 230.067 52.7795 230.337 52.7221Z" stroke="white" stroke-opacity="0.2" stroke-width="2" stroke-linecap="round" stroke-linejoin="round"/>
<path d="M227.641 56.8732C227.911 56.8158 228.083 56.5503 228.026 56.2802C227.969 56.0101 227.703 55.8377 227.433 55.8951C227.163 55.9525 226.99 56.218 227.048 56.4881C227.105 56.7582 227.371 56.9306 227.641 56.8732Z" stroke="white" stroke-opacity="0.2" stroke-width="2" stroke-linecap="round" stroke-linejoin="round"/>
<path d="M276.355 29.4302C276.096 29.4854 275.825 29.4352 275.603 29.2908C275.381 29.1463 275.225 28.9194 275.169 28.66L273.09 18.8785C272.674 16.9222 273.289 15.0026 274.215 14.5501L273.279 10.1484C273.252 10.0187 273.277 9.88339 273.349 9.77217C273.421 9.66096 273.535 9.58299 273.664 9.55542L274.643 9.3475C274.772 9.31993 274.908 9.34502 275.019 9.41724C275.13 9.48947 275.208 9.60291 275.236 9.73262L276.171 14.1343C277.201 14.1709 278.543 15.6748 278.959 17.6311L281.038 27.4125C281.093 27.672 281.043 27.9427 280.899 28.1651C280.754 28.3875 280.528 28.5434 280.268 28.5986L276.355 29.4302Z" fill="white" fill-opacity="0.2"/>
<path d="M244.355 114.43C244.096 114.485 243.825 114.435 243.603 114.291C243.381 114.146 243.225 113.919 243.169 113.66L241.09 103.879C240.674 101.922 241.289 100.003 242.215 99.5501L241.279 95.1484C241.252 95.0187 241.277 94.8834 241.349 94.7722C241.421 94.661 241.535 94.583 241.664 94.5554L242.643 94.3475C242.772 94.3199 242.908 94.345 243.019 94.4172C243.13 94.4895 243.208 94.6029 243.236 94.7326L244.171 99.1343C245.201 99.1709 246.543 100.675 246.959 102.631L249.038 112.413C249.093 112.672 249.043 112.943 248.899 113.165C248.754 113.388 248.528 113.543 248.268 113.599L244.355 114.43Z" fill="white" fill-opacity="0.2"/>
<path d="M299.159 79.5589L285.465 82.4697L285.049 80.5134L298.743 77.6026L299.159 79.5589ZM289.132 61.2434C287.909 61.5033 286.893 62.353 286.435 63.5138L284.51 68.3598L286.882 69.9003L288.613 68.1319C288.978 67.7372 289.629 67.7215 290.028 68.107C290.054 68.1322 290.09 68.1553 290.098 68.1944C290.514 68.7092 290.554 69.4265 290.192 69.984L286.495 75.6771C286.073 76.3392 286.261 77.2195 286.923 77.6411C287.231 77.8413 287.616 77.923 287.978 77.846L296.371 76.0622L293.876 64.3244C293.655 63.2867 293.032 62.3791 292.142 61.8014C291.252 61.2236 290.169 61.0229 289.132 61.2434Z" fill="white" fill-opacity="0.2"/>
<path d="M33.68 83.9067V63.4267H37.5467V83.9067H33.68ZM30.6933 69.4533C30.6933 72.1911 30.2311 74.5822 29.3067 76.6267C28.3822 78.6533 27.0756 80.2178 25.3867 81.32C23.6978 82.4044 21.7244 82.9467 19.4667 82.9467V79.1067C21.7956 79.0889 23.5822 78.2267 24.8267 76.52C26.0889 74.8133 26.72 72.4578 26.72 69.4533V67.5867H19.4667V63.9067H30.6933V69.4533ZM59.5172 77.4H39.8105V74.0667H47.7305V72.6H41.0105V63.4267H44.7705V64.9733H54.5572V63.4267H58.3439V72.6H51.5972V74.0667H59.5172V77.4ZM54.5572 69.5333V67.96H44.7705V69.5333H54.5572ZM58.6105 80.5733V83.9067H40.9572V78.2267H44.8772V80.5733H58.6105Z" fill="white"/>
</g>
<rect x="1.5" y="1.5" width="297" height="97" rx="8.5" stroke="black" stroke-width="3"/>
<defs>
<linearGradient id="paint0_linear_228_2677" x1="150" y1="100" x2="150" y2="0" gradientUnits="userSpaceOnUse">
<stop stop-color="#FF850B"/>
<stop offset="1" stop-color="#FFB300"/>
</linearGradient>
<clipPath id="clip0_228_2677">
<rect width="300" height="100" rx="10" fill="white"/>
</clipPath>
</defs>
</svg>
