<svg width="300" height="100" viewBox="0 0 300 100" fill="none" xmlns="http://www.w3.org/2000/svg">
<g clip-path="url(#clip0_184_1769)">
<rect width="300" height="100" rx="10" fill="#C3C3C3"/>
<path d="M13.1588 36.5588L-0.535248 39.4696L-0.951071 37.5133L12.743 34.6025L13.1588 36.5588ZM3.1317 18.2433C1.90902 18.5032 0.893488 19.3529 0.434794 20.5137L-1.48972 25.3597L0.882403 26.9002L2.61255 25.1318C2.97848 24.7371 3.62944 24.7214 4.02831 25.1069C4.05411 25.1321 4.08969 25.1552 4.09801 25.1943C4.51412 25.709 4.55414 26.4264 4.19213 26.9838L0.494997 32.6769C0.0734469 33.339 0.260567 34.2194 0.922681 34.6409C1.23106 34.8412 1.61646 34.9228 1.97837 34.8459L10.3709 33.062L7.87594 21.3243C7.65537 20.2866 7.03162 19.379 6.1419 18.8012C5.25219 18.2234 4.16938 18.0228 3.1317 18.2433Z" fill="white" fill-opacity="0.2"/>
<path d="M55.2086 -15.026L41.5145 -12.1153C40.4341 -11.8856 39.7444 -10.8236 39.9741 -9.74317L42.8848 3.9509C43.1145 5.03133 44.1765 5.72102 45.2569 5.49137L58.951 2.58061C60.0314 2.35095 60.7211 1.28892 60.4915 0.208489L57.5807 -13.4856C57.3511 -14.566 56.289 -15.2557 55.2086 -15.026Z" stroke="white" stroke-opacity="0.2" stroke-width="2" stroke-linecap="round" stroke-linejoin="round"/>
<path d="M47.6408 -0.127029C47.9109 -0.184442 48.0834 -0.449951 48.026 -0.720059C47.9685 -0.990167 47.703 -1.16259 47.4329 -1.10518C47.1628 -1.04776 46.9904 -0.782255 47.0478 -0.512147C47.1052 -0.242039 47.3707 -0.0696157 47.6408 -0.127029Z" stroke="white" stroke-opacity="0.2" stroke-width="2" stroke-linecap="round" stroke-linejoin="round"/>
<path d="M23.2086 69.974L9.51452 72.8847C8.43409 73.1144 7.7444 74.1764 7.97405 75.2568L10.8848 88.9509C11.1145 90.0313 12.1765 90.721 13.2569 90.4914L26.951 87.5806C28.0314 87.351 28.7211 86.2889 28.4915 85.2085L25.5807 71.5144C25.3511 70.434 24.289 69.7443 23.2086 69.974Z" stroke="white" stroke-opacity="0.2" stroke-width="2" stroke-linecap="round" stroke-linejoin="round"/>
<path d="M21.0326 76.5705C21.3027 76.5131 21.4751 76.2476 21.4177 75.9775C21.3603 75.7073 21.0948 75.5349 20.8246 75.5923C20.5545 75.6497 20.3821 75.9153 20.4395 76.1854C20.4969 76.4555 20.7624 76.6279 21.0326 76.5705Z" stroke="white" stroke-opacity="0.2" stroke-width="2" stroke-linecap="round" stroke-linejoin="round"/>
<path d="M18.3368 80.7217C18.6069 80.6643 18.7793 80.3988 18.7219 80.1287C18.6645 79.8586 18.399 79.6862 18.1288 79.7436C17.8587 79.801 17.6863 80.0665 17.7437 80.3366C17.8011 80.6067 18.0666 80.7791 18.3368 80.7217Z" stroke="white" stroke-opacity="0.2" stroke-width="2" stroke-linecap="round" stroke-linejoin="round"/>
<path d="M15.6408 84.873C15.9109 84.8156 16.0834 84.55 16.026 84.2799C15.9685 84.0098 15.703 83.8374 15.4329 83.8948C15.1628 83.9522 14.9904 84.2177 15.0478 84.4879C15.1052 84.758 15.3707 84.9304 15.6408 84.873Z" stroke="white" stroke-opacity="0.2" stroke-width="2" stroke-linecap="round" stroke-linejoin="round"/>
<path d="M64.3555 57.43C64.0961 57.4851 63.8254 57.435 63.6029 57.2905C63.3805 57.1461 63.2246 56.9192 63.1694 56.6598L61.0903 46.8783C60.6745 44.922 61.2888 43.0023 62.215 42.5499L61.2794 38.1482C61.2518 38.0185 61.2769 37.8831 61.3491 37.7719C61.4213 37.6607 61.5348 37.5827 61.6645 37.5552L62.6426 37.3473C62.7723 37.3197 62.9077 37.3448 63.0189 37.417C63.1301 37.4892 63.2081 37.6027 63.2357 37.7324L64.1713 42.134C65.2014 42.1707 66.5434 43.6745 66.9592 45.6308L69.0383 55.4123C69.0935 55.6717 69.0433 55.9424 68.8988 56.1648C68.7544 56.3873 68.5275 56.5432 68.2681 56.5983L64.3555 57.43Z" fill="white" fill-opacity="0.2"/>
<path d="M119.159 22.5588L105.465 25.4696L105.049 23.5133L118.743 20.6025L119.159 22.5588ZM109.132 4.24332C107.909 4.50321 106.893 5.35292 106.435 6.51365L104.51 11.3597L106.882 12.9002L108.613 11.1318C108.978 10.7371 109.629 10.7214 110.028 11.1069C110.054 11.1321 110.09 11.1552 110.098 11.1943C110.514 11.709 110.554 12.4264 110.192 12.9838L106.495 18.6769C106.073 19.339 106.261 20.2194 106.923 20.6409C107.231 20.8412 107.616 20.9228 107.978 20.8459L116.371 19.062L113.876 7.32427C113.655 6.28658 113.032 5.37902 112.142 4.80123C111.252 4.22344 110.169 4.02276 109.132 4.24332Z" fill="white" fill-opacity="0.2"/>
<path d="M87.1588 107.559L73.4648 110.47L73.0489 108.513L86.743 105.603L87.1588 107.559ZM77.1317 89.2433C75.909 89.5032 74.8935 90.3529 74.4348 91.5137L72.5103 96.3597L74.8824 97.9002L76.6125 96.1318C76.9785 95.7371 77.6294 95.7214 78.0283 96.1069C78.0541 96.1321 78.0897 96.1552 78.098 96.1943C78.5141 96.709 78.5541 97.4264 78.1921 97.9838L74.495 103.677C74.0734 104.339 74.2606 105.219 74.9227 105.641C75.2311 105.841 75.6165 105.923 75.9784 105.846L84.3709 104.062L81.8759 92.3243C81.6554 91.2866 81.0316 90.379 80.1419 89.8012C79.2522 89.2234 78.1694 89.0228 77.1317 89.2433Z" fill="white" fill-opacity="0.2"/>
<path d="M129.209 55.974L115.515 58.8847C114.434 59.1144 113.744 60.1764 113.974 61.2568L116.885 74.9509C117.114 76.0313 118.177 76.721 119.257 76.4914L132.951 73.5806C134.031 73.351 134.721 72.2889 134.491 71.2085L131.581 57.5144C131.351 56.434 130.289 55.7443 129.209 55.974Z" stroke="white" stroke-opacity="0.2" stroke-width="2" stroke-linecap="round" stroke-linejoin="round"/>
<path d="M127.033 62.5705C127.303 62.5131 127.475 62.2476 127.418 61.9775C127.36 61.7073 127.095 61.5349 126.825 61.5923C126.555 61.6497 126.382 61.9153 126.44 62.1854C126.497 62.4555 126.762 62.6279 127.033 62.5705Z" stroke="white" stroke-opacity="0.2" stroke-width="2" stroke-linecap="round" stroke-linejoin="round"/>
<path d="M124.337 66.7217C124.607 66.6643 124.779 66.3988 124.722 66.1287C124.664 65.8586 124.399 65.6862 124.129 65.7436C123.859 65.801 123.686 66.0665 123.744 66.3366C123.801 66.6067 124.067 66.7791 124.337 66.7217Z" stroke="white" stroke-opacity="0.2" stroke-width="2" stroke-linecap="round" stroke-linejoin="round"/>
<path d="M121.641 70.873C121.911 70.8156 122.083 70.55 122.026 70.2799C121.969 70.0098 121.703 69.8374 121.433 69.8948C121.163 69.9522 120.99 70.2177 121.048 70.4879C121.105 70.758 121.371 70.9304 121.641 70.873Z" stroke="white" stroke-opacity="0.2" stroke-width="2" stroke-linecap="round" stroke-linejoin="round"/>
<path d="M170.355 43.43C170.096 43.4851 169.825 43.435 169.603 43.2905C169.381 43.1461 169.225 42.9192 169.169 42.6598L167.09 32.8783C166.674 30.922 167.289 29.0023 168.215 28.5499L167.279 24.1482C167.252 24.0185 167.277 23.8831 167.349 23.7719C167.421 23.6607 167.535 23.5827 167.664 23.5552L168.643 23.3473C168.772 23.3197 168.908 23.3448 169.019 23.417C169.13 23.4892 169.208 23.6027 169.236 23.7324L170.171 28.134C171.201 28.1707 172.543 29.6745 172.959 31.6308L175.038 41.4123C175.093 41.6717 175.043 41.9424 174.899 42.1648C174.754 42.3873 174.528 42.5432 174.268 42.5983L170.355 43.43Z" fill="white" fill-opacity="0.2"/>
<path d="M225.159 8.55881L211.465 11.4696L211.049 9.51327L224.743 6.60251L225.159 8.55881ZM215.132 -9.75668C213.909 -9.49679 212.893 -8.64708 212.435 -7.48635L210.51 -2.64032L212.882 -1.09985L214.613 -2.86821C214.978 -3.26292 215.629 -3.2786 216.028 -2.89311C216.054 -2.86792 216.09 -2.84481 216.098 -2.80569C216.514 -2.29095 216.554 -1.5736 216.192 -1.01615L212.495 4.67693C212.073 5.33905 212.261 6.21938 212.923 6.64093C213.231 6.84119 213.616 6.92285 213.978 6.84592L222.371 5.06204L219.876 -6.67573C219.655 -7.71342 219.032 -8.62098 218.142 -9.19877C217.252 -9.77656 216.169 -9.97724 215.132 -9.75668Z" fill="white" fill-opacity="0.2"/>
<path d="M193.159 93.5588L179.465 96.4696L179.049 94.5133L192.743 91.6025L193.159 93.5588ZM183.132 75.2433C181.909 75.5032 180.893 76.3529 180.435 77.5137L178.51 82.3597L180.882 83.9002L182.613 82.1318C182.978 81.7371 183.629 81.7214 184.028 82.1069C184.054 82.1321 184.09 82.1552 184.098 82.1943C184.514 82.709 184.554 83.4264 184.192 83.9838L180.495 89.6769C180.073 90.339 180.261 91.2194 180.923 91.6409C181.231 91.8412 181.616 91.9228 181.978 91.8459L190.371 90.062L187.876 78.3243C187.655 77.2866 187.032 76.379 186.142 75.8012C185.252 75.2234 184.169 75.0228 183.132 75.2433Z" fill="white" fill-opacity="0.2"/>
<path d="M235.209 41.974L221.515 44.8847C220.434 45.1144 219.744 46.1764 219.974 47.2568L222.885 60.9509C223.114 62.0313 224.177 62.721 225.257 62.4914L238.951 59.5806C240.031 59.351 240.721 58.2889 240.491 57.2085L237.581 43.5144C237.351 42.434 236.289 41.7443 235.209 41.974Z" stroke="white" stroke-opacity="0.2" stroke-width="2" stroke-linecap="round" stroke-linejoin="round"/>
<path d="M233.033 48.5705C233.303 48.5131 233.475 48.2476 233.418 47.9775C233.36 47.7073 233.095 47.5349 232.825 47.5923C232.555 47.6497 232.382 47.9153 232.44 48.1854C232.497 48.4555 232.762 48.6279 233.033 48.5705Z" stroke="white" stroke-opacity="0.2" stroke-width="2" stroke-linecap="round" stroke-linejoin="round"/>
<path d="M230.337 52.7217C230.607 52.6643 230.779 52.3988 230.722 52.1287C230.664 51.8586 230.399 51.6862 230.129 51.7436C229.859 51.801 229.686 52.0665 229.744 52.3366C229.801 52.6067 230.067 52.7791 230.337 52.7217Z" stroke="white" stroke-opacity="0.2" stroke-width="2" stroke-linecap="round" stroke-linejoin="round"/>
<path d="M227.641 56.873C227.911 56.8156 228.083 56.55 228.026 56.2799C227.969 56.0098 227.703 55.8374 227.433 55.8948C227.163 55.9522 226.99 56.2177 227.048 56.4879C227.105 56.758 227.371 56.9304 227.641 56.873Z" stroke="white" stroke-opacity="0.2" stroke-width="2" stroke-linecap="round" stroke-linejoin="round"/>
<path d="M276.355 29.43C276.096 29.4851 275.825 29.435 275.603 29.2905C275.381 29.1461 275.225 28.9192 275.169 28.6598L273.09 18.8783C272.674 16.922 273.289 15.0023 274.215 14.5499L273.279 10.1482C273.252 10.0185 273.277 9.88314 273.349 9.77193C273.421 9.66071 273.535 9.58274 273.664 9.55517L274.643 9.34726C274.772 9.31969 274.908 9.34478 275.019 9.417C275.13 9.48922 275.208 9.60267 275.236 9.73238L276.171 14.134C277.201 14.1707 278.543 15.6745 278.959 17.6308L281.038 27.4123C281.093 27.6717 281.043 27.9424 280.899 28.1648C280.754 28.3873 280.528 28.5432 280.268 28.5983L276.355 29.43Z" fill="white" fill-opacity="0.2"/>
<path d="M244.355 114.43C244.096 114.485 243.825 114.435 243.603 114.291C243.381 114.146 243.225 113.919 243.169 113.66L241.09 103.878C240.674 101.922 241.289 100.002 242.215 99.5499L241.279 95.1482C241.252 95.0185 241.277 94.8831 241.349 94.7719C241.421 94.6607 241.535 94.5827 241.664 94.5552L242.643 94.3473C242.772 94.3197 242.908 94.3448 243.019 94.417C243.13 94.4892 243.208 94.6027 243.236 94.7324L244.171 99.134C245.201 99.1707 246.543 100.675 246.959 102.631L249.038 112.412C249.093 112.672 249.043 112.942 248.899 113.165C248.754 113.387 248.528 113.543 248.268 113.598L244.355 114.43Z" fill="white" fill-opacity="0.2"/>
<path d="M299.159 79.5588L285.465 82.4696L285.049 80.5133L298.743 77.6025L299.159 79.5588ZM289.132 61.2433C287.909 61.5032 286.893 62.3529 286.435 63.5137L284.51 68.3597L286.882 69.9002L288.613 68.1318C288.978 67.7371 289.629 67.7214 290.028 68.1069C290.054 68.1321 290.09 68.1552 290.098 68.1943C290.514 68.709 290.554 69.4264 290.192 69.9838L286.495 75.6769C286.073 76.339 286.261 77.2194 286.923 77.6409C287.231 77.8412 287.616 77.9228 287.978 77.8459L296.371 76.062L293.876 64.3243C293.655 63.2866 293.032 62.379 292.142 61.8012C291.252 61.2234 290.169 61.0228 289.132 61.2433Z" fill="white" fill-opacity="0.2"/>
<path d="M34.3467 83.9067V63.4267H37.2267V83.9067H34.3467ZM30.6133 69.24C30.6133 71.9778 30.16 74.3689 29.2533 76.4133C28.3644 78.44 27.0933 80.0044 25.44 81.1067C23.7867 82.2089 21.8578 82.76 19.6533 82.76V79.88C21.3244 79.88 22.7556 79.4533 23.9467 78.6C25.1556 77.7289 26.0711 76.5022 26.6933 74.92C27.3333 73.32 27.6533 71.4356 27.6533 69.2667V66.84H19.6533V64.0667H30.6133V69.24ZM59.4372 77.0267H39.8905V74.4933H48.2105V72.44H41.2239V63.5067H44.0505V65.6133H55.3039V63.5067H58.1305V72.44H51.1172V74.4933H59.4372V77.0267ZM55.3039 70.0933V67.9067H44.0505V70.0933H55.3039ZM58.4772 81.24V83.7467H41.1705V78.2267H44.1039V81.24H58.4772Z" fill="white"/>
</g>
<defs>
<clipPath id="clip0_184_1769">
<rect width="300" height="100" rx="10" fill="white"/>
</clipPath>
</defs>
</svg>
