<svg width="300" height="100" viewBox="0 0 300 100" fill="none" xmlns="http://www.w3.org/2000/svg">
<g clip-path="url(#clip0_228_5217)">
<rect width="300" height="100" rx="10" fill="url(#paint0_linear_228_5217)"/>
<g clip-path="url(#clip1_228_5217)">
<g clip-path="url(#clip2_228_5217)">
<circle cx="3.45075" cy="12.2623" r="1.5" transform="rotate(-4.87863 3.45075 12.2623)" fill="#FF3B3B"/>
<circle cx="26.3677" cy="10.3062" r="1.5" transform="rotate(-4.87863 26.3677 10.3062)" fill="#FF3B3B"/>
<circle cx="49.2842" cy="8.35015" r="1.5" transform="rotate(-4.87863 49.2842 8.35015)" fill="#FF3B3B"/>
<circle cx="72.2007" cy="6.3941" r="1.5" transform="rotate(-4.87863 72.2007 6.3941)" fill="#FF3B3B"/>
<circle cx="95.1177" cy="4.43804" r="1.5" transform="rotate(-4.87863 95.1177 4.43804)" fill="#FF3B3B"/>
<circle cx="118.034" cy="2.48199" r="1.5" transform="rotate(-4.87863 118.034 2.48199)" fill="#FF3B3B"/>
<circle cx="140.951" cy="0.525933" r="1.5" transform="rotate(-4.87863 140.951 0.525933)" fill="#FF3B3B"/>
<circle cx="163.868" cy="-1.43012" r="1.5" transform="rotate(-4.87863 163.868 -1.43012)" fill="#FF3B3B"/>
</g>
<g clip-path="url(#clip3_228_5217)">
<circle cx="5.4068" cy="35.179" r="1.5" transform="rotate(-4.87863 5.4068 35.179)" fill="#FF3B3B"/>
<circle cx="28.3238" cy="33.223" r="1.5" transform="rotate(-4.87863 28.3238 33.223)" fill="#FF3B3B"/>
<circle cx="51.2403" cy="31.2669" r="1.5" transform="rotate(-4.87863 51.2403 31.2669)" fill="#FF3B3B"/>
<circle cx="74.1568" cy="29.3108" r="1.5" transform="rotate(-4.87863 74.1568 29.3108)" fill="#FF3B3B"/>
<circle cx="97.0738" cy="27.3548" r="1.5" transform="rotate(-4.87863 97.0738 27.3548)" fill="#FF3B3B"/>
<circle cx="119.99" cy="25.3987" r="1.5" transform="rotate(-4.87863 119.99 25.3987)" fill="#FF3B3B"/>
<circle cx="142.907" cy="23.4427" r="1.5" transform="rotate(-4.87863 142.907 23.4427)" fill="#FF3B3B"/>
<circle cx="165.824" cy="21.4866" r="1.5" transform="rotate(-4.87863 165.824 21.4866)" fill="#FF3B3B"/>
<circle cx="188.74" cy="19.5306" r="1.5" transform="rotate(-4.87863 188.74 19.5306)" fill="#FF3B3B"/>
<circle cx="211.657" cy="17.5745" r="1.5" transform="rotate(-4.87863 211.657 17.5745)" fill="#FF3B3B"/>
<circle cx="234.574" cy="15.6187" r="1.5" transform="rotate(-4.87863 234.574 15.6187)" fill="#FF3B3B"/>
<circle cx="257.49" cy="13.6627" r="1.5" transform="rotate(-4.87863 257.49 13.6627)" fill="#FF3B3B"/>
<circle cx="280.407" cy="11.7066" r="1.5" transform="rotate(-4.87863 280.407 11.7066)" fill="#FF3B3B"/>
</g>
<g clip-path="url(#clip4_228_5217)">
<circle cx="7.36286" cy="58.0958" r="1.5" transform="rotate(-4.87863 7.36286 58.0958)" fill="#FF3B3B"/>
<circle cx="30.2798" cy="56.1397" r="1.5" transform="rotate(-4.87863 30.2798 56.1397)" fill="#FF3B3B"/>
<circle cx="53.1964" cy="54.1836" r="1.5" transform="rotate(-4.87863 53.1964 54.1836)" fill="#FF3B3B"/>
<circle cx="76.1129" cy="52.2276" r="1.5" transform="rotate(-4.87863 76.1129 52.2276)" fill="#FF3B3B"/>
<circle cx="99.0298" cy="50.2715" r="1.5" transform="rotate(-4.87863 99.0298 50.2715)" fill="#FF3B3B"/>
<circle cx="121.946" cy="48.3155" r="1.5" transform="rotate(-4.87863 121.946 48.3155)" fill="#FF3B3B"/>
<circle cx="144.863" cy="46.3594" r="1.5" transform="rotate(-4.87863 144.863 46.3594)" fill="#FF3B3B"/>
<circle cx="167.78" cy="44.4034" r="1.5" transform="rotate(-4.87863 167.78 44.4034)" fill="#FF3B3B"/>
<circle cx="190.696" cy="42.4473" r="1.5" transform="rotate(-4.87863 190.696 42.4473)" fill="#FF3B3B"/>
<circle cx="213.613" cy="40.4913" r="1.5" transform="rotate(-4.87863 213.613 40.4913)" fill="#FF3B3B"/>
<circle cx="236.53" cy="38.5355" r="1.5" transform="rotate(-4.87863 236.53 38.5355)" fill="#FF3B3B"/>
<circle cx="259.446" cy="36.5794" r="1.5" transform="rotate(-4.87863 259.446 36.5794)" fill="#FF3B3B"/>
<circle cx="282.363" cy="34.6233" r="1.5" transform="rotate(-4.87863 282.363 34.6233)" fill="#FF3B3B"/>
</g>
<g clip-path="url(#clip5_228_5217)">
<circle cx="9.31891" cy="81.0123" r="1.5" transform="rotate(-4.87863 9.31891 81.0123)" fill="#FF3B3B"/>
<circle cx="32.2359" cy="79.0562" r="1.5" transform="rotate(-4.87863 32.2359 79.0562)" fill="#FF3B3B"/>
<circle cx="55.1524" cy="77.1002" r="1.5" transform="rotate(-4.87863 55.1524 77.1002)" fill="#FF3B3B"/>
<circle cx="78.0689" cy="75.1441" r="1.5" transform="rotate(-4.87863 78.0689 75.1441)" fill="#FF3B3B"/>
<circle cx="100.986" cy="73.188" r="1.5" transform="rotate(-4.87863 100.986 73.188)" fill="#FF3B3B"/>
<circle cx="123.902" cy="71.232" r="1.5" transform="rotate(-4.87863 123.902 71.232)" fill="#FF3B3B"/>
<circle cx="146.819" cy="69.2759" r="1.5" transform="rotate(-4.87863 146.819 69.2759)" fill="#FF3B3B"/>
<circle cx="169.736" cy="67.3199" r="1.5" transform="rotate(-4.87863 169.736 67.3199)" fill="#FF3B3B"/>
<circle cx="192.652" cy="65.3638" r="1.5" transform="rotate(-4.87863 192.652 65.3638)" fill="#FF3B3B"/>
<circle cx="215.569" cy="63.4078" r="1.5" transform="rotate(-4.87863 215.569 63.4078)" fill="#FF3B3B"/>
<circle cx="238.486" cy="61.452" r="1.5" transform="rotate(-4.87863 238.486 61.452)" fill="#FF3B3B"/>
<circle cx="261.402" cy="59.4959" r="1.5" transform="rotate(-4.87863 261.402 59.4959)" fill="#FF3B3B"/>
<circle cx="284.319" cy="57.5398" r="1.5" transform="rotate(-4.87863 284.319 57.5398)" fill="#FF3B3B"/>
</g>
<g clip-path="url(#clip6_228_5217)">
<circle cx="57.1085" cy="100.017" r="1.5" transform="rotate(-4.87863 57.1085 100.017)" fill="#FF3B3B"/>
<circle cx="80.025" cy="98.0608" r="1.5" transform="rotate(-4.87863 80.025 98.0608)" fill="#FF3B3B"/>
<circle cx="102.942" cy="96.1048" r="1.5" transform="rotate(-4.87863 102.942 96.1048)" fill="#FF3B3B"/>
<circle cx="125.858" cy="94.1487" r="1.5" transform="rotate(-4.87863 125.858 94.1487)" fill="#FF3B3B"/>
<circle cx="148.775" cy="92.1927" r="1.5" transform="rotate(-4.87863 148.775 92.1927)" fill="#FF3B3B"/>
<circle cx="171.692" cy="90.2366" r="1.5" transform="rotate(-4.87863 171.692 90.2366)" fill="#FF3B3B"/>
<circle cx="194.608" cy="88.2806" r="1.5" transform="rotate(-4.87863 194.608 88.2806)" fill="#FF3B3B"/>
<circle cx="217.525" cy="86.3245" r="1.5" transform="rotate(-4.87863 217.525 86.3245)" fill="#FF3B3B"/>
<circle cx="240.442" cy="84.3687" r="1.5" transform="rotate(-4.87863 240.442 84.3687)" fill="#FF3B3B"/>
<circle cx="263.358" cy="82.4127" r="1.5" transform="rotate(-4.87863 263.358 82.4127)" fill="#FF3B3B"/>
<circle cx="286.275" cy="80.4566" r="1.5" transform="rotate(-4.87863 286.275 80.4566)" fill="#FF3B3B"/>
</g>
<g clip-path="url(#clip7_228_5217)">
</g>
</g>
<path d="M37.6267 83.9067H33.7867V74.76H29.9733C29.2444 77.3733 27.9467 79.3911 26.08 80.8133C24.2133 82.2178 21.9733 82.9289 19.36 82.9467V79.16C20.9956 79.1422 22.3911 78.76 23.5467 78.0133C24.7022 77.2489 25.5556 76.1111 26.1067 74.6H19.36V70.92H26.72V70.3333V67.6133H19.36V63.9067H30.56V70.04C30.56 70.4667 30.5511 70.7778 30.5333 70.9733H33.7867V63.4267H37.6267V83.9067ZM49.5439 71.2133C48.3883 72.8489 47.0016 74.1378 45.3839 75.08C43.7661 76.0044 42.0416 76.4756 40.2105 76.4933V72.6533C41.4905 72.6533 42.7172 72.2533 43.8905 71.4533C45.0639 70.6533 46.0505 69.5511 46.8505 68.1467C47.6505 66.7422 48.1661 65.1422 48.3972 63.3467L52.3172 63.9867C52.1216 65.4622 51.7661 66.8133 51.2505 68.04L59.5439 73.32L57.5172 76.6L49.5439 71.2133ZM59.5172 79.4V83.1867H39.8105V79.4H59.5172ZM79.861 75.3733H76.021V70.4667H73.4877V67.0533H76.021V63.4267H79.861V75.3733ZM74.1544 74.28C73.6566 74.5111 72.981 74.6889 72.1277 74.8133C71.2744 74.9378 70.3766 75 69.4344 75H61.4877V63.6667H73.0077V66.7333H65.301V67.88H72.341V70.76H65.301V71.9333H69.6744C70.5455 71.9333 71.381 71.8711 72.181 71.7467C72.981 71.6222 73.6388 71.4622 74.1544 71.2667V74.28ZM79.861 76.0933V83.9067H62.4477V76.0933H79.861ZM76.0477 80.76V79.2667H66.2877V80.76H76.0477Z" fill="white"/>
<path d="M152.468 65.0214C150.462 65.4476 148.485 65.4651 146.536 65.0737C144.587 64.6824 142.805 63.9622 141.19 62.9131C139.574 61.8641 138.192 60.5289 137.041 58.9076C135.891 57.2863 135.103 55.4731 134.677 53.4679C134.245 51.4382 134.238 49.4463 134.653 47.4922C135.069 45.538 135.815 43.7565 136.891 42.1476C137.967 40.5387 139.328 39.1571 140.974 38.0027C142.62 36.8482 144.47 36.0522 146.524 35.6146C148.48 35.1988 150.398 35.1428 152.277 35.4468C154.156 35.7507 155.876 36.3563 157.437 37.2636C158.998 38.171 160.336 39.3561 161.452 40.8192C162.567 42.2822 163.325 43.9547 163.725 45.8367C164.323 48.6488 163.926 50.989 162.534 52.8573C161.142 54.7255 159.223 55.919 156.777 56.4378L154.063 57.0148C153.843 57.0616 153.703 57.1551 153.644 57.2955C153.585 57.4358 153.571 57.5795 153.601 57.7264C153.663 58.0199 153.936 58.403 154.42 58.8757C154.904 59.3484 155.221 59.9389 155.372 60.647C155.632 61.8697 155.488 62.8459 154.941 63.5757C154.393 64.3054 153.569 64.7873 152.468 65.0214ZM141.591 53.5317C142.227 53.3965 142.709 53.0769 143.036 52.5729C143.363 52.0688 143.459 51.4988 143.324 50.8631C143.189 50.2273 142.869 49.7457 142.365 49.4183C141.861 49.091 141.291 48.9949 140.656 49.13C140.02 49.2652 139.538 49.5848 139.211 50.0888C138.883 50.5929 138.787 51.1629 138.923 51.7987C139.058 52.4345 139.377 52.916 139.881 53.2434C140.385 53.5707 140.955 53.6668 141.591 53.5317ZM144.745 46.7272C145.381 46.5921 145.863 46.2724 146.19 45.7684C146.517 45.2643 146.614 44.6944 146.478 44.0586C146.343 43.4228 146.024 42.9412 145.52 42.6138C145.015 42.2865 144.446 42.1904 143.81 42.3255C143.174 42.4607 142.692 42.7803 142.365 43.2844C142.038 43.7884 141.942 44.3584 142.077 44.9942C142.212 45.63 142.531 46.1115 143.036 46.4389C143.54 46.7662 144.11 46.8623 144.745 46.7272ZM152.081 45.1679C152.717 45.0327 153.199 44.7131 153.526 44.209C153.854 43.705 153.95 43.135 153.814 42.4992C153.679 41.8634 153.36 41.3819 152.856 41.0545C152.352 40.7272 151.782 40.6311 151.146 40.7662C150.51 40.9013 150.028 41.2209 149.701 41.725C149.374 42.2291 149.278 42.799 149.413 43.4348C149.548 44.0706 149.868 44.5522 150.372 44.8795C150.876 45.2069 151.446 45.303 152.081 45.1679ZM157.731 50.1011C158.366 49.966 158.848 49.6464 159.175 49.1423C159.503 48.6382 159.599 48.0683 159.464 47.4325C159.328 46.7967 159.009 46.3151 158.505 45.9878C158.001 45.6604 157.431 45.5643 156.795 45.6995C156.159 45.8346 155.678 46.1542 155.35 46.6583C155.023 47.1624 154.927 47.7323 155.062 48.3681C155.197 49.0039 155.517 49.4855 156.021 49.8128C156.525 50.1402 157.095 50.2363 157.731 50.1011Z" fill="white"/>
</g>
<rect x="1.5" y="1.5" width="297" height="97" rx="8.5" stroke="#2A2A2A" stroke-width="3"/>
<defs>
<linearGradient id="paint0_linear_228_5217" x1="300" y1="50" x2="0" y2="50" gradientUnits="userSpaceOnUse">
<stop stop-color="#E22D2D"/>
<stop offset="1" stop-color="#DB3445"/>
</linearGradient>
<clipPath id="clip0_228_5217">
<rect width="300" height="100" rx="10" fill="white"/>
</clipPath>
<clipPath id="clip1_228_5217">
<rect width="400" height="200" fill="white" transform="translate(-25 -32.9819) rotate(-4.87863)"/>
</clipPath>
<clipPath id="clip2_228_5217">
<rect width="400" height="23" fill="white" transform="translate(-21.0879 12.8513) rotate(-4.87863)"/>
</clipPath>
<clipPath id="clip3_228_5217">
<rect width="400" height="23" fill="white" transform="translate(-19.1318 35.7681) rotate(-4.87863)"/>
</clipPath>
<clipPath id="clip4_228_5217">
<rect width="400" height="23" fill="white" transform="translate(-17.1758 58.6848) rotate(-4.87863)"/>
</clipPath>
<clipPath id="clip5_228_5217">
<rect width="400" height="23" fill="white" transform="translate(-15.2197 81.6013) rotate(-4.87863)"/>
</clipPath>
<clipPath id="clip6_228_5217">
<rect width="400" height="23" fill="white" transform="translate(-13.2637 104.518) rotate(-4.87863)"/>
</clipPath>
<clipPath id="clip7_228_5217">
<rect width="400" height="23" fill="white" transform="translate(-11.3076 127.435) rotate(-4.87863)"/>
</clipPath>
</defs>
</svg>
