<svg width="300" height="100" viewBox="0 0 300 100" fill="none" xmlns="http://www.w3.org/2000/svg">
<g clip-path="url(#clip0_228_4803)">
<rect width="300" height="100" rx="10" fill="white"/>
<g clip-path="url(#clip1_228_4803)">
<g clip-path="url(#clip2_228_4803)">
<circle cx="3.45075" cy="12.2623" r="1.5" transform="rotate(-4.87863 3.45075 12.2623)" fill="#D2D6DB" fill-opacity="0.5"/>
<circle cx="26.3677" cy="10.3062" r="1.5" transform="rotate(-4.87863 26.3677 10.3062)" fill="#D2D6DB" fill-opacity="0.5"/>
<circle cx="49.2842" cy="8.35015" r="1.5" transform="rotate(-4.87863 49.2842 8.35015)" fill="#D2D6DB" fill-opacity="0.5"/>
<circle cx="72.2007" cy="6.3941" r="1.5" transform="rotate(-4.87863 72.2007 6.3941)" fill="#D2D6DB" fill-opacity="0.5"/>
<circle cx="95.1177" cy="4.43804" r="1.5" transform="rotate(-4.87863 95.1177 4.43804)" fill="#D2D6DB" fill-opacity="0.5"/>
<circle cx="118.034" cy="2.48199" r="1.5" transform="rotate(-4.87863 118.034 2.48199)" fill="#D2D6DB" fill-opacity="0.5"/>
<circle cx="140.951" cy="0.525933" r="1.5" transform="rotate(-4.87863 140.951 0.525933)" fill="#D2D6DB" fill-opacity="0.5"/>
<circle cx="163.868" cy="-1.43012" r="1.5" transform="rotate(-4.87863 163.868 -1.43012)" fill="#D2D6DB" fill-opacity="0.5"/>
</g>
<g clip-path="url(#clip3_228_4803)">
<circle cx="5.4068" cy="35.179" r="1.5" transform="rotate(-4.87863 5.4068 35.179)" fill="#D2D6DB" fill-opacity="0.5"/>
<circle cx="28.3238" cy="33.223" r="1.5" transform="rotate(-4.87863 28.3238 33.223)" fill="#D2D6DB" fill-opacity="0.5"/>
<circle cx="51.2403" cy="31.2669" r="1.5" transform="rotate(-4.87863 51.2403 31.2669)" fill="#D2D6DB" fill-opacity="0.5"/>
<circle cx="74.1568" cy="29.3108" r="1.5" transform="rotate(-4.87863 74.1568 29.3108)" fill="#D2D6DB" fill-opacity="0.5"/>
<circle cx="97.0738" cy="27.3548" r="1.5" transform="rotate(-4.87863 97.0738 27.3548)" fill="#D2D6DB" fill-opacity="0.5"/>
<circle cx="119.99" cy="25.3987" r="1.5" transform="rotate(-4.87863 119.99 25.3987)" fill="#D2D6DB" fill-opacity="0.5"/>
<circle cx="142.907" cy="23.4427" r="1.5" transform="rotate(-4.87863 142.907 23.4427)" fill="#D2D6DB" fill-opacity="0.5"/>
<circle cx="165.824" cy="21.4866" r="1.5" transform="rotate(-4.87863 165.824 21.4866)" fill="#D2D6DB" fill-opacity="0.5"/>
<circle cx="188.74" cy="19.5306" r="1.5" transform="rotate(-4.87863 188.74 19.5306)" fill="#D2D6DB" fill-opacity="0.5"/>
<circle cx="211.657" cy="17.5745" r="1.5" transform="rotate(-4.87863 211.657 17.5745)" fill="#D2D6DB" fill-opacity="0.5"/>
<circle cx="234.574" cy="15.6187" r="1.5" transform="rotate(-4.87863 234.574 15.6187)" fill="#D2D6DB" fill-opacity="0.5"/>
<circle cx="257.49" cy="13.6627" r="1.5" transform="rotate(-4.87863 257.49 13.6627)" fill="#D2D6DB" fill-opacity="0.5"/>
<circle cx="280.407" cy="11.7066" r="1.5" transform="rotate(-4.87863 280.407 11.7066)" fill="#D2D6DB" fill-opacity="0.5"/>
</g>
<g clip-path="url(#clip4_228_4803)">
<circle cx="7.36286" cy="58.0958" r="1.5" transform="rotate(-4.87863 7.36286 58.0958)" fill="#D2D6DB" fill-opacity="0.5"/>
<circle cx="30.2798" cy="56.1397" r="1.5" transform="rotate(-4.87863 30.2798 56.1397)" fill="#D2D6DB" fill-opacity="0.5"/>
<circle cx="53.1964" cy="54.1836" r="1.5" transform="rotate(-4.87863 53.1964 54.1836)" fill="#D2D6DB" fill-opacity="0.5"/>
<circle cx="76.1129" cy="52.2276" r="1.5" transform="rotate(-4.87863 76.1129 52.2276)" fill="#D2D6DB" fill-opacity="0.5"/>
<circle cx="99.0298" cy="50.2715" r="1.5" transform="rotate(-4.87863 99.0298 50.2715)" fill="#D2D6DB" fill-opacity="0.5"/>
<circle cx="121.946" cy="48.3155" r="1.5" transform="rotate(-4.87863 121.946 48.3155)" fill="#D2D6DB" fill-opacity="0.5"/>
<circle cx="144.863" cy="46.3594" r="1.5" transform="rotate(-4.87863 144.863 46.3594)" fill="#D2D6DB" fill-opacity="0.5"/>
<circle cx="167.78" cy="44.4034" r="1.5" transform="rotate(-4.87863 167.78 44.4034)" fill="#D2D6DB" fill-opacity="0.5"/>
<circle cx="190.696" cy="42.4473" r="1.5" transform="rotate(-4.87863 190.696 42.4473)" fill="#D2D6DB" fill-opacity="0.5"/>
<circle cx="213.613" cy="40.4913" r="1.5" transform="rotate(-4.87863 213.613 40.4913)" fill="#D2D6DB" fill-opacity="0.5"/>
<circle cx="236.53" cy="38.5355" r="1.5" transform="rotate(-4.87863 236.53 38.5355)" fill="#D2D6DB" fill-opacity="0.5"/>
<circle cx="259.446" cy="36.5794" r="1.5" transform="rotate(-4.87863 259.446 36.5794)" fill="#D2D6DB" fill-opacity="0.5"/>
<circle cx="282.363" cy="34.6233" r="1.5" transform="rotate(-4.87863 282.363 34.6233)" fill="#D2D6DB" fill-opacity="0.5"/>
</g>
<g clip-path="url(#clip5_228_4803)">
<circle cx="9.31891" cy="81.0123" r="1.5" transform="rotate(-4.87863 9.31891 81.0123)" fill="#D2D6DB" fill-opacity="0.5"/>
<circle cx="32.2359" cy="79.0562" r="1.5" transform="rotate(-4.87863 32.2359 79.0562)" fill="#D2D6DB" fill-opacity="0.5"/>
<circle cx="55.1524" cy="77.1002" r="1.5" transform="rotate(-4.87863 55.1524 77.1002)" fill="#D2D6DB" fill-opacity="0.5"/>
<circle cx="78.0689" cy="75.1441" r="1.5" transform="rotate(-4.87863 78.0689 75.1441)" fill="#D2D6DB" fill-opacity="0.5"/>
<circle cx="100.986" cy="73.188" r="1.5" transform="rotate(-4.87863 100.986 73.188)" fill="#D2D6DB" fill-opacity="0.5"/>
<circle cx="123.902" cy="71.232" r="1.5" transform="rotate(-4.87863 123.902 71.232)" fill="#D2D6DB" fill-opacity="0.5"/>
<circle cx="146.819" cy="69.2759" r="1.5" transform="rotate(-4.87863 146.819 69.2759)" fill="#D2D6DB" fill-opacity="0.5"/>
<circle cx="169.736" cy="67.3199" r="1.5" transform="rotate(-4.87863 169.736 67.3199)" fill="#D2D6DB" fill-opacity="0.5"/>
<circle cx="192.652" cy="65.3638" r="1.5" transform="rotate(-4.87863 192.652 65.3638)" fill="#D2D6DB" fill-opacity="0.5"/>
<circle cx="215.569" cy="63.4078" r="1.5" transform="rotate(-4.87863 215.569 63.4078)" fill="#D2D6DB" fill-opacity="0.5"/>
<circle cx="238.486" cy="61.452" r="1.5" transform="rotate(-4.87863 238.486 61.452)" fill="#D2D6DB" fill-opacity="0.5"/>
<circle cx="261.402" cy="59.4959" r="1.5" transform="rotate(-4.87863 261.402 59.4959)" fill="#D2D6DB" fill-opacity="0.5"/>
<circle cx="284.319" cy="57.5398" r="1.5" transform="rotate(-4.87863 284.319 57.5398)" fill="#D2D6DB" fill-opacity="0.5"/>
</g>
<g clip-path="url(#clip6_228_4803)">
<circle cx="57.1085" cy="100.017" r="1.5" transform="rotate(-4.87863 57.1085 100.017)" fill="#D2D6DB" fill-opacity="0.5"/>
<circle cx="80.025" cy="98.0608" r="1.5" transform="rotate(-4.87863 80.025 98.0608)" fill="#D2D6DB" fill-opacity="0.5"/>
<circle cx="102.942" cy="96.1048" r="1.5" transform="rotate(-4.87863 102.942 96.1048)" fill="#D2D6DB" fill-opacity="0.5"/>
<circle cx="125.858" cy="94.1487" r="1.5" transform="rotate(-4.87863 125.858 94.1487)" fill="#D2D6DB" fill-opacity="0.5"/>
<circle cx="148.775" cy="92.1927" r="1.5" transform="rotate(-4.87863 148.775 92.1927)" fill="#D2D6DB" fill-opacity="0.5"/>
<circle cx="171.692" cy="90.2366" r="1.5" transform="rotate(-4.87863 171.692 90.2366)" fill="#D2D6DB" fill-opacity="0.5"/>
<circle cx="194.608" cy="88.2806" r="1.5" transform="rotate(-4.87863 194.608 88.2806)" fill="#D2D6DB" fill-opacity="0.5"/>
<circle cx="217.525" cy="86.3245" r="1.5" transform="rotate(-4.87863 217.525 86.3245)" fill="#D2D6DB" fill-opacity="0.5"/>
<circle cx="240.442" cy="84.3687" r="1.5" transform="rotate(-4.87863 240.442 84.3687)" fill="#D2D6DB" fill-opacity="0.5"/>
<circle cx="263.358" cy="82.4127" r="1.5" transform="rotate(-4.87863 263.358 82.4127)" fill="#D2D6DB" fill-opacity="0.5"/>
<circle cx="286.275" cy="80.4566" r="1.5" transform="rotate(-4.87863 286.275 80.4566)" fill="#D2D6DB" fill-opacity="0.5"/>
</g>
<g clip-path="url(#clip7_228_4803)">
</g>
</g>
<path d="M37.36 83.9067H34.48V74.28H30C29.5733 76.0578 28.8444 77.5867 27.8133 78.8667C26.8 80.1289 25.5822 81.0889 24.16 81.7467C22.7378 82.4044 21.2 82.7422 19.5467 82.76V79.9067C21.4311 79.9067 23.0311 79.4089 24.3467 78.4133C25.6622 77.4178 26.5867 75.9778 27.12 74.0933H19.5467V71.32H27.5733C27.5911 71.0711 27.6 70.68 27.6 70.1467V66.84H19.5467V64.0667H30.48V69.96C30.48 70.3156 30.4622 70.8133 30.4267 71.4533H34.48V63.4267H37.36V83.9067ZM49.4639 70.6267C48.3261 72.4044 46.9483 73.8089 45.3305 74.84C43.7305 75.8533 42.0505 76.3689 40.2905 76.3867V73.5067C41.6239 73.5067 42.9039 73.0622 44.1305 72.1733C45.375 71.2844 46.4327 70.0756 47.3039 68.5467C48.175 67.0178 48.7527 65.32 49.0372 63.4533L51.9972 63.96C51.7127 65.5778 51.295 67 50.7439 68.2267L59.1972 74.04L57.6505 76.4667L49.4639 70.6267ZM59.4372 80.2V83.0267H39.8905V80.2H59.4372ZM79.5944 75.4H76.7144V70.0667H73.701V67.48H76.7144V63.4267H79.5944V75.4ZM74.501 73.96C73.9499 74.2267 73.1677 74.44 72.1544 74.6C71.141 74.7422 70.0299 74.8133 68.821 74.8133H61.7277V63.8267H73.1944V66.1733H64.581V68.2H72.4477V70.4133H64.581V72.4667H69.0344C70.1722 72.4667 71.221 72.3956 72.181 72.2533C73.141 72.0933 73.9144 71.8889 74.501 71.64V73.96ZM79.541 76.36V83.7467H62.6877V76.36H79.541ZM76.6877 81.3467V78.7867H65.541V81.3467H76.6877Z" fill="#A4A4A4"/>
<path d="M152.468 65.0214C150.462 65.4476 148.485 65.4651 146.536 65.0737C144.587 64.6824 142.805 63.9622 141.19 62.9131C139.574 61.8641 138.192 60.5289 137.041 58.9076C135.891 57.2863 135.103 55.4731 134.677 53.4679C134.245 51.4382 134.238 49.4463 134.653 47.4922C135.069 45.538 135.815 43.7565 136.891 42.1476C137.967 40.5387 139.328 39.1571 140.974 38.0027C142.62 36.8482 144.47 36.0522 146.524 35.6146C148.48 35.1988 150.398 35.1428 152.277 35.4468C154.156 35.7507 155.876 36.3563 157.437 37.2636C158.998 38.171 160.336 39.3561 161.452 40.8192C162.567 42.2822 163.325 43.9547 163.725 45.8367C164.323 48.6488 163.926 50.989 162.534 52.8573C161.142 54.7255 159.223 55.919 156.777 56.4378L154.063 57.0148C153.843 57.0616 153.703 57.1551 153.644 57.2955C153.585 57.4358 153.571 57.5795 153.601 57.7264C153.663 58.0199 153.936 58.403 154.42 58.8757C154.904 59.3484 155.221 59.9389 155.372 60.647C155.632 61.8697 155.488 62.8459 154.941 63.5757C154.393 64.3054 153.569 64.7873 152.468 65.0214ZM141.591 53.5317C142.227 53.3965 142.709 53.0769 143.036 52.5729C143.363 52.0688 143.459 51.4988 143.324 50.8631C143.189 50.2273 142.869 49.7457 142.365 49.4183C141.861 49.091 141.291 48.9949 140.656 49.13C140.02 49.2652 139.538 49.5848 139.211 50.0888C138.883 50.5929 138.787 51.1629 138.923 51.7987C139.058 52.4345 139.377 52.916 139.881 53.2434C140.385 53.5707 140.955 53.6668 141.591 53.5317ZM144.745 46.7272C145.381 46.5921 145.863 46.2724 146.19 45.7684C146.517 45.2643 146.614 44.6944 146.478 44.0586C146.343 43.4228 146.024 42.9412 145.52 42.6138C145.015 42.2865 144.446 42.1904 143.81 42.3255C143.174 42.4607 142.692 42.7803 142.365 43.2844C142.038 43.7884 141.942 44.3584 142.077 44.9942C142.212 45.63 142.531 46.1115 143.036 46.4389C143.54 46.7662 144.11 46.8623 144.745 46.7272ZM152.081 45.1679C152.717 45.0327 153.199 44.7131 153.526 44.209C153.854 43.705 153.95 43.135 153.814 42.4992C153.679 41.8634 153.36 41.3819 152.856 41.0545C152.352 40.7272 151.782 40.6311 151.146 40.7662C150.51 40.9013 150.028 41.2209 149.701 41.725C149.374 42.2291 149.278 42.799 149.413 43.4348C149.548 44.0706 149.868 44.5522 150.372 44.8795C150.876 45.2069 151.446 45.303 152.081 45.1679ZM157.731 50.1011C158.366 49.966 158.848 49.6464 159.175 49.1423C159.503 48.6382 159.599 48.0683 159.464 47.4325C159.328 46.7967 159.009 46.3151 158.505 45.9878C158.001 45.6604 157.431 45.5643 156.795 45.6995C156.159 45.8346 155.678 46.1542 155.35 46.6583C155.023 47.1624 154.927 47.7323 155.062 48.3681C155.197 49.0039 155.517 49.4855 156.021 49.8128C156.525 50.1402 157.095 50.2363 157.731 50.1011Z" fill="#A4A4A4"/>
</g>
<rect x="1" y="1" width="298" height="98" rx="9" stroke="#A4A4A4" stroke-width="2"/>
<defs>
<clipPath id="clip0_228_4803">
<rect width="300" height="100" rx="10" fill="white"/>
</clipPath>
<clipPath id="clip1_228_4803">
<rect width="400" height="200" fill="white" transform="translate(-25 -32.9819) rotate(-4.87863)"/>
</clipPath>
<clipPath id="clip2_228_4803">
<rect width="400" height="23" fill="white" transform="translate(-21.0879 12.8513) rotate(-4.87863)"/>
</clipPath>
<clipPath id="clip3_228_4803">
<rect width="400" height="23" fill="white" transform="translate(-19.1318 35.7681) rotate(-4.87863)"/>
</clipPath>
<clipPath id="clip4_228_4803">
<rect width="400" height="23" fill="white" transform="translate(-17.1758 58.6848) rotate(-4.87863)"/>
</clipPath>
<clipPath id="clip5_228_4803">
<rect width="400" height="23" fill="white" transform="translate(-15.2197 81.6013) rotate(-4.87863)"/>
</clipPath>
<clipPath id="clip6_228_4803">
<rect width="400" height="23" fill="white" transform="translate(-13.2637 104.518) rotate(-4.87863)"/>
</clipPath>
<clipPath id="clip7_228_4803">
<rect width="400" height="23" fill="white" transform="translate(-11.3076 127.435) rotate(-4.87863)"/>
</clipPath>
</defs>
</svg>
