<svg width="372" height="457" viewBox="0 0 372 457" fill="none" xmlns="http://www.w3.org/2000/svg">
<path d="M457.218 130.432C486.166 150.706 493.197 190.609 472.922 219.557L326.08 429.218C305.805 458.166 265.902 465.197 236.954 444.922L27.294 298.08C-1.6541 277.805 -8.68527 237.902 11.5894 208.954L158.432 -0.706007C178.706 -29.6541 218.609 -36.6852 247.557 -16.4106L457.218 130.432ZM133.474 216.194C119 206.057 99.049 209.572 88.9116 224.046C78.7743 238.52 82.2899 258.472 96.7639 268.609C111.238 278.746 131.189 275.231 141.327 260.757C151.464 246.283 147.948 226.331 133.474 216.194ZM277.616 317.148C263.142 307.011 243.191 310.526 233.053 325C222.916 339.474 226.431 359.426 240.905 369.563C255.379 379.7 275.331 376.185 285.468 361.711C295.606 347.237 292.09 327.285 277.616 317.148ZM260.611 188.048C246.137 177.911 226.186 181.426 216.048 195.901C205.911 210.375 209.426 230.326 223.9 240.463C238.375 250.601 258.326 247.085 268.463 232.611C278.601 218.137 275.085 198.186 260.611 188.048ZM243.606 58.9486C229.132 48.8113 209.181 52.3269 199.043 66.8009C188.906 81.2749 192.422 101.226 206.896 111.364C221.37 121.501 241.321 117.985 251.458 103.511C261.596 89.0374 258.08 69.0859 243.606 58.9486ZM387.748 159.903C373.274 149.765 353.322 153.281 343.185 167.755C333.047 182.229 336.563 202.18 351.037 212.318C365.511 222.455 385.463 218.939 395.6 204.465C405.737 189.991 402.222 170.04 387.748 159.903Z" fill="url(#paint0_linear_469_11742)" fill-opacity="0.7"/>
<defs>
<linearGradient id="paint0_linear_469_11742" x1="157.775" y1="-12.5196" x2="326.736" y2="441.031" gradientUnits="userSpaceOnUse">
<stop stop-color="#FFA601"/>
<stop offset="1" stop-color="#FF850B"/>
</linearGradient>
</defs>
</svg>
