<svg width="151" height="150" viewBox="0 0 151 150" fill="none" xmlns="http://www.w3.org/2000/svg">
<g filter="url(#filter0_d_953_7472)">
<path d="M75.3333 40C61.5239 40 50.3333 51.1937 50.3333 65C50.3333 78.8063 61.5239 90 75.3333 90C89.1426 90 100.333 78.8063 100.333 65C100.333 51.1937 89.1426 40 75.3333 40ZM86.9176 72.1656C87.5036 72.7516 87.8328 73.5463 87.8328 74.375C87.8328 75.2037 87.5036 75.9984 86.9176 76.5844C86.3317 77.1703 85.5369 77.4995 84.7083 77.4995C83.8796 77.4995 83.0848 77.1703 82.4989 76.5844L75.3333 69.4187L68.1676 76.5844C67.8781 76.8756 67.5338 77.1067 67.1547 77.2644C66.7755 77.4221 66.3689 77.5032 65.9583 77.5032C65.5476 77.5032 65.141 77.4221 64.7618 77.2644C64.3827 77.1067 64.0384 76.8756 63.7489 76.5844C63.163 75.9984 62.8339 75.2036 62.8339 74.375C62.8339 73.5464 63.163 72.7516 63.7489 72.1656L70.9145 65L63.7489 57.8344C63.1629 57.2484 62.8337 56.4537 62.8337 55.625C62.8337 54.7963 63.1629 54.0016 63.7489 53.4156C64.3348 52.8297 65.1296 52.5005 65.9583 52.5005C66.7869 52.5005 67.5817 52.8297 68.1676 53.4156L75.3333 60.5813L82.4989 53.4156C83.0848 52.8297 83.8796 52.5005 84.7083 52.5005C85.5369 52.5005 86.3317 52.8297 86.9176 53.4156C87.5036 54.0016 87.8328 54.7963 87.8328 55.625C87.8328 56.4537 87.5036 57.2484 86.9176 57.8344L79.752 65L86.9176 72.1656Z" fill="white"/>
</g>
<defs>
<filter id="filter0_d_953_7472" x="0.333252" y="0" width="150" height="150" filterUnits="userSpaceOnUse" color-interpolation-filters="sRGB">
<feFlood flood-opacity="0" result="BackgroundImageFix"/>
<feColorMatrix in="SourceAlpha" type="matrix" values="0 0 0 0 0 0 0 0 0 0 0 0 0 0 0 0 0 0 127 0" result="hardAlpha"/>
<feOffset dy="10"/>
<feGaussianBlur stdDeviation="25"/>
<feComposite in2="hardAlpha" operator="out"/>
<feColorMatrix type="matrix" values="0 0 0 0 0 0 0 0 0 0 0 0 0 0 0 0 0 0 0.25 0"/>
<feBlend mode="normal" in2="BackgroundImageFix" result="effect1_dropShadow_953_7472"/>
<feBlend mode="normal" in="SourceGraphic" in2="effect1_dropShadow_953_7472" result="shape"/>
</filter>
</defs>
</svg>
