<svg width="141" height="39" viewBox="0 0 141 39" fill="none" xmlns="http://www.w3.org/2000/svg">
<g clip-path="url(#clip0_933_8559)">
<path d="M94.6198 3.9496C94.6198 1.96138 96.2315 0.349609 98.2198 0.349609H102.54V34.5496C102.54 36.5378 100.928 38.1496 98.9398 38.1496H94.6198V3.9496Z" fill="#2A2A2A"/>
<path d="M21.8998 3.9496C21.8998 1.96138 23.5116 0.349609 25.4998 0.349609H29.8198V34.5496C29.8198 36.5378 28.208 38.1496 26.2198 38.1496H21.8998V3.9496Z" fill="#2A2A2A"/>
<path d="M29.8199 15.29H33.4199V19.61C33.4199 21.5983 31.8082 23.21 29.8199 23.21V15.29Z" fill="#2A2A2A"/>
<path d="M70.8423 1.96973H91.7223V9.16973H70.8423V1.96973Z" fill="#2A2A2A"/>
<path d="M70.1399 26.3317C74.4999 23.4613 74.9843 13.5741 74.6815 8.98926H81.9481C82.8201 26.85 75.5293 32.5112 71.7749 33.1093L70.1399 26.3317Z" fill="#2A2A2A"/>
<path d="M79.1399 29.6827C83.7352 26.3717 84.2857 14.5075 83.9865 8.98926H91.7052C92.2796 29.1703 85.602 33.4272 80.7554 35.9893L79.1399 29.6827Z" fill="#2A2A2A"/>
<path d="M35.2198 16.9094C35.2198 15.9153 36.0257 15.1094 37.0198 15.1094H68.3398V18.3494C68.3398 19.3435 67.534 20.1494 66.5398 20.1494H35.2198V16.9094Z" fill="#2A2A2A"/>
<path d="M58.0979 25.8115H65.8199V27.2188H58.0979V25.8115Z" fill="#2A2A2A"/>
<path d="M37.74 31.4404H45.462V32.8477H37.74V31.4404Z" fill="#2A2A2A"/>
<path d="M37.7399 23.3898C37.7399 22.3957 38.5458 21.5898 39.5399 21.5898H65.8199V25.8117H37.7399V23.3898Z" fill="#2A2A2A"/>
<path d="M37.74 30.8188C37.74 28.8305 39.3518 27.2188 41.34 27.2188H65.82V27.8406C65.82 29.8288 64.2082 31.4406 62.22 31.4406H37.74V30.8188Z" fill="#2A2A2A"/>
<path d="M37.74 32.8477H65.82V35.2695C65.82 36.2636 65.0141 37.0695 64.02 37.0695H37.74V32.8477Z" fill="#2A2A2A"/>
<path d="M37.7399 2.86934C37.7399 1.87522 38.5458 1.06934 39.5399 1.06934H45.4619V4.55476H37.7399V2.86934Z" fill="#2A2A2A"/>
<path d="M58.0979 1.06934H65.8199V4.55476H58.0979V1.06934Z" fill="#2A2A2A"/>
<path d="M65.8201 11.8691C65.82 12.8631 65.0142 13.6688 64.0203 13.6689H37.74V4.55469H65.8201V11.8691ZM46.1746 8.25781C45.7813 8.25781 45.4626 8.57646 45.4626 8.96973C45.4628 9.36289 45.7814 9.68164 46.1746 9.68164H57.3865C57.7795 9.68143 58.0983 9.36276 58.0984 8.96973C58.0984 8.57659 57.7796 8.25802 57.3865 8.25781H46.1746Z" fill="#2A2A2A"/>
<path d="M19.7393 11.4434V27.0557H19.7402V32.749C19.7402 34.7372 18.1279 36.3496 16.1396 36.3496H0.299805V5.74902C0.300016 3.76111 1.9115 2.14962 3.89941 2.14941H19.7402L19.7393 11.4434ZM8.9209 10.0693C8.72215 10.0694 8.56152 10.2309 8.56152 10.4297V11.9219C8.56159 12.1206 8.72219 12.2821 8.9209 12.2822H8.82617L8.56152 17.8135C8.56152 17.8135 8.23001 18.0726 7.9375 18.6875V11.4434H7.93652V18.6885C7.70589 19.1737 7.50005 19.8804 7.5 20.8555V28.877C7.50018 28.9048 7.51416 29.9824 8.56152 29.9824H11.4785C12.5388 29.9823 12.54 29.2459 12.54 28.877V20.8555C12.5399 19.0859 11.8322 18.0903 11.4785 17.8135L11.2139 12.2822H11.1191C11.3177 12.282 11.4785 12.1205 11.4785 11.9219V10.4297C11.4785 10.231 11.3178 10.0696 11.1191 10.0693H8.9209Z" fill="#2A2A2A"/>
<path d="M119.1 9.16992H127.02V14.9299H119.1V9.16992Z" fill="#2A2A2A"/>
<path d="M106.14 22.1299H114.06V27.8899H106.14V22.1299Z" fill="#2A2A2A"/>
<path d="M106.14 5.56973C106.14 3.5815 107.752 1.96973 109.74 1.96973H127.02V9.16973H106.14V5.56973Z" fill="#2A2A2A"/>
<path d="M106.14 14.9297H127.02V22.1297H106.14V14.9297Z" fill="#2A2A2A"/>
<path d="M106.14 27.8896H127.02V31.4896C127.02 33.4779 125.408 35.0896 123.42 35.0896H106.14V27.8896Z" fill="#2A2A2A"/>
<path d="M129.9 3.9496C129.9 1.96138 131.512 0.349609 133.5 0.349609H137.82V34.5496C137.82 36.5378 136.208 38.1496 134.22 38.1496H129.9V3.9496Z" fill="#2A2A2A"/>
</g>
<defs>
<clipPath id="clip0_933_8559">
<rect width="140.4" height="37.8" fill="white" transform="translate(0.299805 0.349609)"/>
</clipPath>
</defs>
</svg>
