<svg width="24" height="24" viewBox="0 0 24 24" fill="none" xmlns="http://www.w3.org/2000/svg">
<path d="M19 7V5H17V3H19V1H21V3H23V5H21V7H19ZM11 17.5C12.25 17.5 13.3127 17.0627 14.188 16.188C15.0633 15.3133 15.5007 14.2507 15.5 13C15.4993 11.7493 15.062 10.687 14.188 9.813C13.314 8.939 12.2513 8.50133 11 8.5C9.74867 8.49867 8.68633 8.93633 7.813 9.813C6.93967 10.6897 6.502 11.752 6.5 13C6.498 14.248 6.93567 15.3107 7.813 16.188C8.69033 17.0653 9.75267 17.5027 11 17.5ZM11 15.5C10.3 15.5 9.70833 15.2583 9.225 14.775C8.74167 14.2917 8.5 13.7 8.5 13C8.5 12.3 8.74167 11.7083 9.225 11.225C9.70833 10.7417 10.3 10.5 11 10.5C11.7 10.5 12.2917 10.7417 12.775 11.225C13.2583 11.7083 13.5 12.3 13.5 13C13.5 13.7 13.2583 14.2917 12.775 14.775C12.2917 15.2583 11.7 15.5 11 15.5ZM3 21C2.45 21 1.97933 20.8043 1.588 20.413C1.19667 20.0217 1.00067 19.5507 1 19V7C1 6.45 1.196 5.97933 1.588 5.588C1.98 5.19667 2.45067 5.00067 3 5H6.15L8 3H15V7H17V9H21V19C21 19.55 20.8043 20.021 20.413 20.413C20.0217 20.805 19.5507 21.0007 19 21H3Z" fill="#2A2A2A"/>
</svg>
