<svg width="65" height="179" viewBox="0 0 65 179" fill="none" xmlns="http://www.w3.org/2000/svg">
<path d="M19.4744 145.396C18.2313 143.349 16.5588 138.254 19.809 134.246L35.8746 114.433L35.9368 114.484C38.5817 112.503 45.4775 114.872 51.9465 120.117C58.4151 125.362 62.1573 131.619 60.7658 134.616L60.8273 134.666L60.4478 135.134C60.4411 135.143 60.435 135.152 60.4282 135.16C60.4213 135.168 60.4136 135.177 60.4066 135.185L44.7617 154.479C40.7223 159.46 34.0006 157.137 33.9217 157.11L22.45 168.572L10.6303 158.988L19.4744 145.396ZM6.03085 163.564C5.60187 163.216 5.53611 162.587 5.88396 162.158L8.68745 158.7C9.03533 158.271 9.66507 158.205 10.094 158.553L22.9865 169.008C23.4154 169.356 23.4812 169.986 23.1333 170.415L20.3299 173.872C19.982 174.301 19.3522 174.367 18.9233 174.019L6.03085 163.564Z" fill="black" fill-opacity="0.5"/>
<path d="M31.9278 1C31.9278 0.447715 32.3755 0 32.9278 0H52.9942C53.5465 0 53.9942 0.447715 53.9942 1V13.692C53.9942 14.2443 53.5465 14.692 52.9942 14.692H32.9278C32.3755 14.692 31.9278 14.2443 31.9278 13.692V1Z" fill="#2A2A2A"/>
<path d="M53.9941 51.4223L51.9881 14.6924H33.9338L31.9277 51.4223C31.9277 51.4223 23.9036 56.9318 23.9036 71.6238V124.882C23.9036 124.882 23.9036 132.228 31.9277 132.228H41.9579H53.9941C62.0183 132.228 62.0183 127.331 62.0183 124.882V71.6238C62.0183 59.8702 56.6688 53.2588 53.9941 51.4223Z" fill="#2A2A2A"/>
<path d="M42.9615 117C48.2916 117 53.1103 118.489 56.5689 120.889H62.0191V131.26H61.9244C60.9684 137.811 52.8436 142.928 42.9615 142.928C33.0796 142.928 24.9545 137.811 23.9986 131.26H23.9049V120.889H29.3541C32.8127 118.489 37.6313 117 42.9615 117Z" fill="#2A2A2A"/>
</svg>
