<svg width="300" height="100" viewBox="0 0 300 100" fill="none" xmlns="http://www.w3.org/2000/svg">
<g clip-path="url(#clip0_228_4802)">
<rect width="300" height="100" rx="10" fill="url(#paint0_linear_228_4802)"/>
<path d="M2.56937 20.4075C0.494003 20.8486 -1.32112 22.0961 -2.4767 23.8755C-3.63228 25.655 -4.03365 27.8206 -3.59252 29.8959L-0.658075 29.2722C-0.139233 29.1619 0.402168 29.2623 0.847026 29.5511C1.29189 29.84 1.60376 30.2938 1.71404 30.8127L2.7536 35.7034C2.86389 36.2222 2.76354 36.7636 2.47465 37.2085C2.18575 37.6534 1.73197 37.9652 1.21313 38.0755L-1.72131 38.6993C-2.24015 38.8095 -2.78156 38.7092 -3.22641 38.4203C-3.67127 38.1314 -3.98315 37.6776 -4.09343 37.1588L-5.54881 30.3117C-6.69711 24.9094 -3.24876 19.5995 2.15355 18.4512C7.55586 17.3029 12.8658 20.7512 14.0141 26.1535L15.4695 33.0005C15.5798 33.5194 15.4795 34.0608 15.1906 34.5057C14.9017 34.9505 14.4479 35.2624 13.929 35.3727L10.9946 35.9964C10.4758 36.1067 9.93436 36.0063 9.48951 35.7174C9.04465 35.4286 8.73277 34.9748 8.62249 34.4559L7.58293 29.5652C7.47265 29.0464 7.57299 28.505 7.86188 28.0601C8.15078 27.6152 8.60456 27.3034 9.1234 27.1931L12.0578 26.5693C11.6167 24.494 10.3692 22.6788 8.58978 21.5233C6.81034 20.3677 4.64474 19.9663 2.56937 20.4075ZM-3.17669 31.8522L-2.13714 36.743L0.797307 36.1192L-0.242251 31.2285L-3.17669 31.8522ZM9.53922 29.1494L10.5788 34.0401L13.5132 33.4164L12.4737 28.5256L9.53922 29.1494Z" fill="white" fill-opacity="0.2"/>
<path d="M57.618 -13.3094L60.0755 -1.74772C60.2584 -0.886425 60.152 0.011147 59.7727 0.805797C59.3935 1.60045 58.7627 2.24777 57.9781 2.64738C57.1935 3.04698 56.299 3.17654 55.4332 3.01596C54.5675 2.85538 53.779 2.41364 53.1899 1.75923C52.6008 1.10483 52.2441 0.274335 52.175 -0.603455C52.106 -1.48125 52.3286 -2.35728 52.8082 -3.0957C53.2878 -3.83412 53.9976 -4.39367 54.8276 -4.68756C55.6576 -4.98145 56.5614 -4.99327 57.3988 -4.72118L56.4936 -8.98004L47.0585 -5.27133L48.5457 1.72536C48.5581 1.78405 48.5653 1.84182 48.5672 1.89868C48.7973 2.63593 48.7771 3.42858 48.5097 4.15314C48.2423 4.8777 47.7428 5.49348 47.0889 5.90454C46.4351 6.3156 45.6637 6.49885 44.8948 6.42575C44.1259 6.35264 43.4029 6.02728 42.8382 5.50036C42.2736 4.97344 41.899 4.27455 41.773 3.51258C41.647 2.75061 41.7765 1.96835 42.1415 1.28769C42.5064 0.607019 43.0862 0.0661688 43.7906 -0.2506C44.4949 -0.567368 45.2843 -0.642265 46.0357 -0.463621L44.2705 -8.76809C44.172 -9.23117 44.241 -9.71418 44.4652 -10.1312C44.6894 -10.5482 45.0542 -10.8721 45.4948 -11.0454L54.9299 -14.7541C55.2002 -14.8604 55.4903 -14.9066 55.7802 -14.8894C56.0702 -14.8722 56.3528 -14.792 56.6087 -14.6546C56.8645 -14.5171 57.0873 -14.3255 57.2616 -14.0932C57.4359 -13.8609 57.5575 -13.5935 57.618 -13.3094ZM44.9142 1.47491C44.5251 1.55762 44.1848 1.79153 43.9681 2.12517C43.7514 2.45881 43.6762 2.86486 43.7589 3.254C43.8416 3.64313 44.0755 3.98346 44.4091 4.20013C44.7428 4.4168 45.1488 4.49206 45.538 4.40935C45.9271 4.32664 46.2674 4.09273 46.4841 3.75909C46.7008 3.42544 46.776 3.01939 46.6933 2.63026C46.6106 2.24113 46.3767 1.90079 46.0431 1.68412C45.7094 1.46745 45.3034 1.39219 44.9142 1.47491ZM55.7471 -2.87237C55.2283 -2.76209 54.7745 -2.45021 54.4856 -2.00536C54.1967 -1.5605 54.0963 -1.0191 54.2066 -0.500254C54.3169 0.018587 54.6288 0.472369 55.0736 0.761263C55.5185 1.05016 56.0599 1.1505 56.5787 1.04022C57.0976 0.929934 57.5514 0.618058 57.8403 0.1732C58.1292 -0.271658 58.2295 -0.81306 58.1192 -1.3319C58.0089 -1.85074 57.6971 -2.30452 57.2522 -2.59342C56.8073 -2.88231 56.2659 -2.98266 55.7471 -2.87237ZM55.6617 -12.8936L46.2268 -9.18392L46.637 -7.25403L56.0719 -10.9637L55.6617 -12.8936Z" fill="white" fill-opacity="0.2"/>
<path d="M25.618 71.6906L28.0755 83.2523C28.2584 84.1136 28.152 85.0111 27.7727 85.8058C27.3935 86.6004 26.7627 87.2478 25.9781 87.6474C25.1935 88.047 24.299 88.1765 23.4332 88.016C22.5675 87.8554 21.779 87.4136 21.1899 86.7592C20.6008 86.1048 20.2441 85.2743 20.175 84.3965C20.106 83.5188 20.3286 82.6427 20.8082 81.9043C21.2878 81.1659 21.9976 80.6063 22.8276 80.3124C23.6576 80.0185 24.5614 80.0067 25.3988 80.2788L24.4936 76.02L15.0585 79.7287L16.5457 86.7254C16.5581 86.7841 16.5653 86.8418 16.5672 86.8987C16.7973 87.6359 16.7771 88.4286 16.5097 89.1531C16.2423 89.8777 15.7428 90.4935 15.0889 90.9045C14.4351 91.3156 13.6637 91.4989 12.8948 91.4257C12.1259 91.3526 11.4029 91.0273 10.8382 90.5004C10.2736 89.9734 9.89905 89.2745 9.77302 88.5126C9.647 87.7506 9.77654 86.9684 10.1415 86.2877C10.5064 85.607 11.0862 85.0662 11.7906 84.7494C12.4949 84.4326 13.2843 84.3577 14.0357 84.5364L12.2705 76.2319C12.172 75.7688 12.241 75.2858 12.4652 74.8688C12.6894 74.4518 13.0542 74.1279 13.4948 73.9546L22.9299 70.2459C23.2002 70.1396 23.4903 70.0934 23.7802 70.1106C24.0702 70.1278 24.3528 70.208 24.6087 70.3454C24.8645 70.4829 25.0873 70.6745 25.2616 70.9068C25.4359 71.1391 25.5575 71.4065 25.618 71.6906ZM12.9142 86.4749C12.5251 86.5576 12.1848 86.7915 11.9681 87.1252C11.7514 87.4588 11.6762 87.8649 11.7589 88.254C11.8416 88.6431 12.0755 88.9835 12.4091 89.2001C12.7428 89.4168 13.1488 89.4921 13.538 89.4093C13.9271 89.3266 14.2674 89.0927 14.4841 88.7591C14.7008 88.4254 14.776 88.0194 14.6933 87.6303C14.6106 87.2411 14.3767 86.9008 14.0431 86.6841C13.7094 86.4675 13.3034 86.3922 12.9142 86.4749ZM23.7471 82.1276C23.2283 82.2379 22.7745 82.5498 22.4856 82.9946C22.1967 83.4395 22.0963 83.9809 22.2066 84.4997C22.3169 85.0186 22.6288 85.4724 23.0736 85.7613C23.5185 86.0502 24.0599 86.1505 24.5787 86.0402C25.0976 85.9299 25.5514 85.6181 25.8403 85.1732C26.1292 84.7283 26.2295 84.1869 26.1192 83.6681C26.0089 83.1493 25.6971 82.6955 25.2522 82.4066C24.8073 82.1177 24.2659 82.0173 23.7471 82.1276ZM23.6617 72.1064L14.2268 75.8161L14.637 77.746L24.0719 74.0363L23.6617 72.1064Z" fill="white" fill-opacity="0.2"/>
<path d="M67.3542 47.4895C68.4288 47.4802 69.4718 47.1249 70.3287 46.4762C71.1855 45.8276 71.8105 44.9201 72.1112 43.8883C72.4118 42.8566 72.372 41.7554 71.9976 40.748C71.6233 39.7407 70.9343 38.8807 70.0329 38.2956C69.1314 37.7106 68.0655 37.4315 66.993 37.4998C65.9205 37.5681 64.8985 37.9801 64.0786 38.6748C63.2587 39.3696 62.6844 40.31 62.4408 41.3567C62.1973 42.4034 62.2975 43.5007 62.7266 44.486M67.3542 47.4895L62.7268 44.487L57.1627 54.4454C56.8735 54.8902 56.7729 55.4315 56.8829 55.9504C56.9374 56.2074 57.0419 56.4511 57.1906 56.6676C57.3392 56.8841 57.5291 57.0693 57.7493 57.2124C57.9695 57.3556 58.2157 57.454 58.474 57.502C58.7322 57.55 58.9973 57.5467 59.2543 57.4922C59.7732 57.3822 60.2272 57.0705 60.5163 56.6258L67.3542 47.4895Z" stroke="white" stroke-opacity="0.2" stroke-width="2" stroke-linecap="round" stroke-linejoin="round"/>
<path d="M108.569 6.4077C106.494 6.84883 104.679 8.09633 103.523 9.87576C102.368 11.6552 101.966 13.8208 102.407 15.8962L105.342 15.2724C105.861 15.1622 106.402 15.2625 106.847 15.5514C107.292 15.8403 107.604 16.2941 107.714 16.8129L108.754 21.7036C108.864 22.2225 108.764 22.7639 108.475 23.2087C108.186 23.6536 107.732 23.9655 107.213 24.0758L104.279 24.6995C103.76 24.8098 103.218 24.7094 102.774 24.4205C102.329 24.1317 102.017 23.6779 101.907 23.159L100.451 16.312C99.3029 10.9097 102.751 5.5997 108.154 4.4514C113.556 3.3031 118.866 6.75145 120.014 12.1538L121.47 19.0008C121.58 19.5196 121.479 20.061 121.191 20.5059C120.902 20.9508 120.448 21.2626 119.929 21.3729L116.995 21.9966C116.476 22.1069 115.934 22.0066 115.49 21.7177C115.045 21.4288 114.733 20.975 114.622 20.4562L113.583 15.5654C113.473 15.0466 113.573 14.5052 113.862 14.0603C114.151 13.6155 114.605 13.3036 115.123 13.1933L118.058 12.5696C117.617 10.4942 116.369 8.67909 114.59 7.52351C112.81 6.36793 110.645 5.96656 108.569 6.4077ZM102.823 17.8525L103.863 22.7432L106.797 22.1195L105.758 17.2287L102.823 17.8525ZM115.539 15.1496L116.579 20.0404L119.513 19.4166L118.474 14.5259L115.539 15.1496Z" fill="white" fill-opacity="0.2"/>
<path d="M76.5694 91.4077C74.494 91.8488 72.6789 93.0963 71.5233 94.8758C70.3677 96.6552 69.9663 98.8208 70.4075 100.896L73.3419 100.272C73.8608 100.162 74.4022 100.262 74.847 100.551C75.2919 100.84 75.6038 101.294 75.714 101.813L76.7536 106.704C76.8639 107.222 76.7635 107.764 76.4746 108.209C76.1858 108.654 75.732 108.965 75.2131 109.076L72.2787 109.699C71.7598 109.81 71.2184 109.709 70.7736 109.421C70.3287 109.132 70.0169 108.678 69.9066 108.159L68.4512 101.312C67.3029 95.9097 70.7512 90.5997 76.1535 89.4514C81.5559 88.3031 86.8658 91.7515 88.0141 97.1538L89.4695 104.001C89.5798 104.52 89.4795 105.061 89.1906 105.506C88.9017 105.951 88.4479 106.263 87.929 106.373L84.9946 106.997C84.4758 107.107 83.9344 107.007 83.4895 106.718C83.0446 106.429 82.7328 105.975 82.6225 105.456L81.5829 100.565C81.4726 100.047 81.573 99.5052 81.8619 99.0603C82.1508 98.6155 82.6046 98.3036 83.1234 98.1933L86.0578 97.5696C85.6167 95.4942 84.3692 93.6791 82.5898 92.5235C80.8103 91.3679 78.6447 90.9666 76.5694 91.4077ZM70.8233 102.852L71.8629 107.743L74.7973 107.119L73.7577 102.229L70.8233 102.852ZM83.5392 100.15L84.5788 105.04L87.5132 104.417L86.4737 99.5259L83.5392 100.15Z" fill="white" fill-opacity="0.2"/>
<path d="M131.618 57.6906L134.076 69.2523C134.258 70.1136 134.152 71.0111 133.773 71.8058C133.394 72.6004 132.763 73.2478 131.978 73.6474C131.194 74.047 130.299 74.1765 129.433 74.016C128.568 73.8554 127.779 73.4136 127.19 72.7592C126.601 72.1048 126.244 71.2743 126.175 70.3965C126.106 69.5188 126.329 68.6427 126.808 67.9043C127.288 67.1659 127.998 66.6063 128.828 66.3124C129.658 66.0185 130.561 66.0067 131.399 66.2788L130.494 62.02L121.058 65.7287L122.546 72.7254C122.558 72.7841 122.565 72.8418 122.567 72.8987C122.797 73.6359 122.777 74.4286 122.51 75.1531C122.242 75.8777 121.743 76.4935 121.089 76.9045C120.435 77.3156 119.664 77.4989 118.895 77.4257C118.126 77.3526 117.403 77.0273 116.838 76.5004C116.274 75.9734 115.899 75.2745 115.773 74.5126C115.647 73.7506 115.777 72.9684 116.141 72.2877C116.506 71.607 117.086 71.0662 117.791 70.7494C118.495 70.4326 119.284 70.3577 120.036 70.5364L118.271 62.2319C118.172 61.7688 118.241 61.2858 118.465 60.8688C118.689 60.4518 119.054 60.1279 119.495 59.9546L128.93 56.2459C129.2 56.1396 129.49 56.0934 129.78 56.1106C130.07 56.1278 130.353 56.208 130.609 56.3454C130.864 56.4829 131.087 56.6745 131.262 56.9068C131.436 57.1391 131.558 57.4065 131.618 57.6906ZM118.914 72.4749C118.525 72.5576 118.185 72.7915 117.968 73.1252C117.751 73.4588 117.676 73.8649 117.759 74.254C117.842 74.6431 118.075 74.9835 118.409 75.2001C118.743 75.4168 119.149 75.4921 119.538 75.4093C119.927 75.3266 120.267 75.0927 120.484 74.7591C120.701 74.4254 120.776 74.0194 120.693 73.6303C120.611 73.2411 120.377 72.9008 120.043 72.6841C119.709 72.4675 119.303 72.3922 118.914 72.4749ZM129.747 68.1276C129.228 68.2379 128.774 68.5498 128.486 68.9946C128.197 69.4395 128.096 69.9809 128.207 70.4997C128.317 71.0186 128.629 71.4724 129.074 71.7613C129.519 72.0502 130.06 72.1505 130.579 72.0402C131.098 71.9299 131.551 71.6181 131.84 71.1732C132.129 70.7283 132.23 70.1869 132.119 69.6681C132.009 69.1493 131.697 68.6955 131.252 68.4066C130.807 68.1177 130.266 68.0173 129.747 68.1276ZM129.662 58.1064L120.227 61.8161L120.637 63.746L130.072 60.0363L129.662 58.1064Z" fill="white" fill-opacity="0.2"/>
<path d="M173.354 33.4895C174.429 33.4802 175.472 33.1249 176.329 32.4762C177.186 31.8276 177.811 30.9201 178.111 29.8883C178.412 28.8566 178.372 27.7554 177.998 26.748C177.623 25.7407 176.934 24.8807 176.033 24.2956C175.131 23.7106 174.065 23.4315 172.993 23.4998C171.92 23.5681 170.899 23.9801 170.079 24.6748C169.259 25.3696 168.684 26.31 168.441 27.3567C168.197 28.4034 168.298 29.5007 168.727 30.486M173.354 33.4895L168.727 30.487L163.163 40.4454C162.874 40.8902 162.773 41.4315 162.883 41.9504C162.937 42.2074 163.042 42.4511 163.191 42.6676C163.339 42.8841 163.529 43.0693 163.749 43.2124C163.969 43.3556 164.216 43.454 164.474 43.502C164.732 43.55 164.997 43.5467 165.254 43.4922C165.773 43.3822 166.227 43.0705 166.516 42.6258L173.354 33.4895Z" stroke="white" stroke-opacity="0.2" stroke-width="2" stroke-linecap="round" stroke-linejoin="round"/>
<path d="M214.569 -7.5923C212.494 -7.15117 210.679 -5.90367 209.523 -4.12424C208.368 -2.3448 207.966 -0.179196 208.407 1.89617L211.342 1.27244C211.861 1.16215 212.402 1.2625 212.847 1.55139C213.292 1.84028 213.604 2.29407 213.714 2.81291L214.754 7.70365C214.864 8.22249 214.764 8.76389 214.475 9.20875C214.186 9.6536 213.732 9.96548 213.213 10.0758L210.279 10.6995C209.76 10.8098 209.218 10.7094 208.774 10.4205C208.329 10.1317 208.017 9.67787 207.907 9.15903L206.451 2.31199C205.303 -3.09032 208.751 -8.4003 214.154 -9.5486C219.556 -10.6969 224.866 -7.24855 226.014 -1.84624L227.47 5.00079C227.58 5.51964 227.479 6.06104 227.191 6.50589C226.902 6.95075 226.448 7.26263 225.929 7.37291L222.995 7.99665C222.476 8.10693 221.934 8.00659 221.49 7.71769C221.045 7.4288 220.733 6.97502 220.622 6.45618L219.583 1.56544C219.473 1.0466 219.573 0.505194 219.862 0.060336C220.151 -0.384522 220.605 -0.696398 221.123 -0.806681L224.058 -1.43042C223.617 -3.50578 222.369 -5.32091 220.59 -6.47649C218.81 -7.63207 216.645 -8.03344 214.569 -7.5923ZM208.823 3.85247L209.863 8.7432L212.797 8.11947L211.758 3.22873L208.823 3.85247ZM221.539 1.14961L222.579 6.04035L225.513 5.41662L224.474 0.525879L221.539 1.14961Z" fill="white" fill-opacity="0.2"/>
<path d="M182.569 77.4077C180.494 77.8488 178.679 79.0963 177.523 80.8758C176.368 82.6552 175.966 84.8208 176.407 86.8962L179.342 86.2724C179.861 86.1622 180.402 86.2625 180.847 86.5514C181.292 86.8403 181.604 87.2941 181.714 87.8129L182.754 92.7036C182.864 93.2225 182.764 93.7639 182.475 94.2087C182.186 94.6536 181.732 94.9655 181.213 95.0758L178.279 95.6995C177.76 95.8098 177.218 95.7094 176.774 95.4205C176.329 95.1317 176.017 94.6779 175.907 94.159L174.451 87.312C173.303 81.9097 176.751 76.5997 182.154 75.4514C187.556 74.3031 192.866 77.7515 194.014 83.1538L195.47 90.0008C195.58 90.5196 195.479 91.061 195.191 91.5059C194.902 91.9508 194.448 92.2626 193.929 92.3729L190.995 92.9966C190.476 93.1069 189.934 93.0066 189.49 92.7177C189.045 92.4288 188.733 91.975 188.622 91.4562L187.583 86.5654C187.473 86.0466 187.573 85.5052 187.862 85.0603C188.151 84.6155 188.605 84.3036 189.123 84.1933L192.058 83.5696C191.617 81.4942 190.369 79.6791 188.59 78.5235C186.81 77.3679 184.645 76.9666 182.569 77.4077ZM176.823 88.8525L177.863 93.7432L180.797 93.1195L179.758 88.2287L176.823 88.8525ZM189.539 86.1496L190.579 91.0404L193.513 90.4166L192.474 85.5259L189.539 86.1496Z" fill="white" fill-opacity="0.2"/>
<path d="M237.618 43.6906L240.076 55.2523C240.258 56.1136 240.152 57.0111 239.773 57.8058C239.394 58.6004 238.763 59.2478 237.978 59.6474C237.194 60.047 236.299 60.1765 235.433 60.016C234.568 59.8554 233.779 59.4136 233.19 58.7592C232.601 58.1048 232.244 57.2743 232.175 56.3965C232.106 55.5188 232.329 54.6427 232.808 53.9043C233.288 53.1659 233.998 52.6063 234.828 52.3124C235.658 52.0185 236.561 52.0067 237.399 52.2788L236.494 48.02L227.058 51.7287L228.546 58.7254C228.558 58.7841 228.565 58.8418 228.567 58.8987C228.797 59.6359 228.777 60.4286 228.51 61.1531C228.242 61.8777 227.743 62.4935 227.089 62.9045C226.435 63.3156 225.664 63.4989 224.895 63.4257C224.126 63.3526 223.403 63.0273 222.838 62.5004C222.274 61.9734 221.899 61.2745 221.773 60.5126C221.647 59.7506 221.777 58.9684 222.141 58.2877C222.506 57.607 223.086 57.0662 223.791 56.7494C224.495 56.4326 225.284 56.3577 226.036 56.5364L224.271 48.2319C224.172 47.7688 224.241 47.2858 224.465 46.8688C224.689 46.4518 225.054 46.1279 225.495 45.9546L234.93 42.2459C235.2 42.1396 235.49 42.0934 235.78 42.1106C236.07 42.1278 236.353 42.208 236.609 42.3454C236.864 42.4829 237.087 42.6745 237.262 42.9068C237.436 43.1391 237.558 43.4065 237.618 43.6906ZM224.914 58.4749C224.525 58.5576 224.185 58.7915 223.968 59.1252C223.751 59.4588 223.676 59.8649 223.759 60.254C223.842 60.6431 224.075 60.9835 224.409 61.2001C224.743 61.4168 225.149 61.4921 225.538 61.4093C225.927 61.3266 226.267 61.0927 226.484 60.7591C226.701 60.4254 226.776 60.0194 226.693 59.6303C226.611 59.2411 226.377 58.9008 226.043 58.6841C225.709 58.4675 225.303 58.3922 224.914 58.4749ZM235.747 54.1276C235.228 54.2379 234.774 54.5498 234.486 54.9946C234.197 55.4395 234.096 55.9809 234.207 56.4997C234.317 57.0186 234.629 57.4724 235.074 57.7613C235.519 58.0502 236.06 58.1505 236.579 58.0402C237.098 57.9299 237.551 57.6181 237.84 57.1732C238.129 56.7283 238.23 56.1869 238.119 55.6681C238.009 55.1493 237.697 54.6955 237.252 54.4066C236.807 54.1177 236.266 54.0173 235.747 54.1276ZM235.662 44.1064L226.227 47.8161L226.637 49.746L236.072 46.0363L235.662 44.1064Z" fill="white" fill-opacity="0.2"/>
<path d="M279.354 19.4895C280.429 19.4802 281.472 19.1249 282.329 18.4762C283.186 17.8276 283.811 16.9201 284.111 15.8883C284.412 14.8566 284.372 13.7554 283.998 12.748C283.623 11.7407 282.934 10.8807 282.033 10.2956C281.131 9.71057 280.065 9.4315 278.993 9.4998C277.92 9.56811 276.899 9.98014 276.079 10.6748C275.259 11.3696 274.684 12.31 274.441 13.3567C274.197 14.4034 274.298 15.5007 274.727 16.486M279.354 19.4895L274.727 16.487L269.163 26.4454C268.874 26.8902 268.773 27.4315 268.883 27.9504C268.937 28.2074 269.042 28.4511 269.191 28.6676C269.339 28.8841 269.529 29.0693 269.749 29.2124C269.969 29.3556 270.216 29.454 270.474 29.502C270.732 29.55 270.997 29.5467 271.254 29.4922C271.773 29.3822 272.227 29.0705 272.516 28.6258L279.354 19.4895Z" stroke="white" stroke-opacity="0.2" stroke-width="2" stroke-linecap="round" stroke-linejoin="round"/>
<path d="M247.354 104.49C248.429 104.48 249.472 104.125 250.329 103.476C251.186 102.828 251.811 101.92 252.111 100.888C252.412 99.8566 252.372 98.7554 251.998 97.748C251.623 96.7407 250.934 95.8807 250.033 95.2956C249.131 94.7106 248.065 94.4315 246.993 94.4998C245.92 94.5681 244.899 94.9801 244.079 95.6748C243.259 96.3696 242.684 97.31 242.441 98.3567C242.197 99.4034 242.298 100.501 242.727 101.486M247.354 104.49L242.727 101.487L237.163 111.445C236.874 111.89 236.773 112.432 236.883 112.95C236.937 113.207 237.042 113.451 237.191 113.668C237.339 113.884 237.529 114.069 237.749 114.212C237.969 114.356 238.216 114.454 238.474 114.502C238.732 114.55 238.997 114.547 239.254 114.492C239.773 114.382 240.227 114.071 240.516 113.626L247.354 104.49Z" stroke="white" stroke-opacity="0.2" stroke-width="2" stroke-linecap="round" stroke-linejoin="round"/>
<path d="M288.569 63.4077C286.494 63.8488 284.679 65.0963 283.523 66.8758C282.368 68.6552 281.966 70.8208 282.407 72.8962L285.342 72.2724C285.861 72.1622 286.402 72.2625 286.847 72.5514C287.292 72.8403 287.604 73.2941 287.714 73.8129L288.754 78.7036C288.864 79.2225 288.764 79.7639 288.475 80.2087C288.186 80.6536 287.732 80.9655 287.213 81.0758L284.279 81.6995C283.76 81.8098 283.218 81.7094 282.774 81.4205C282.329 81.1317 282.017 80.6779 281.907 80.159L280.451 73.312C279.303 67.9097 282.751 62.5997 288.154 61.4514C293.556 60.3031 298.866 63.7515 300.014 69.1538L301.47 76.0008C301.58 76.5196 301.479 77.061 301.191 77.5059C300.902 77.9508 300.448 78.2626 299.929 78.3729L296.995 78.9966C296.476 79.1069 295.934 79.0066 295.49 78.7177C295.045 78.4288 294.733 77.975 294.622 77.4562L293.583 72.5654C293.473 72.0466 293.573 71.5052 293.862 71.0603C294.151 70.6155 294.605 70.3036 295.123 70.1933L298.058 69.5696C297.617 67.4942 296.369 65.6791 294.59 64.5235C292.81 63.3679 290.645 62.9666 288.569 63.4077ZM282.823 74.8525L283.863 79.7432L286.797 79.1195L285.758 74.2287L282.823 74.8525ZM295.539 72.1496L296.579 77.0404L299.513 76.4166L298.474 71.5259L295.539 72.1496Z" fill="white" fill-opacity="0.2"/>
<path d="M36.9867 74.84V83.9067H33.1467V63.4267H36.9867V70.92H39.28V74.84H36.9867ZM25.12 63.6667C27.0044 63.6667 28.48 64.4756 29.5467 66.0933C30.6133 67.7111 31.1467 70.1556 31.1467 73.4267C31.1467 76.6978 30.6133 79.1422 29.5467 80.76C28.48 82.3778 27.0044 83.1867 25.12 83.1867C23.2356 83.1867 21.76 82.3778 20.6933 80.76C19.6267 79.1422 19.0933 76.6978 19.0933 73.4267C19.0933 70.1556 19.6267 67.7111 20.6933 66.0933C21.76 64.4756 23.2356 63.6667 25.12 63.6667ZM25.12 79.48C26.5778 79.48 27.3067 77.4622 27.3067 73.4267C27.3067 69.3911 26.5778 67.3733 25.12 67.3733C23.6267 67.3733 22.88 69.3911 22.88 73.4267C22.88 77.4622 23.6267 79.48 25.12 79.48ZM54.7972 83.9067V63.4267H58.6639V83.9067H54.7972ZM46.5305 63.6667C48.4327 63.6667 49.9261 64.4756 51.0105 66.0933C52.095 67.7111 52.6372 70.1556 52.6372 73.4267C52.6372 76.6978 52.095 79.1422 51.0105 80.76C49.9261 82.3778 48.4327 83.1867 46.5305 83.1867C44.6105 83.1867 43.1083 82.3778 42.0239 80.76C40.9394 79.1422 40.3972 76.6978 40.3972 73.4267C40.3972 70.1556 40.9394 67.7111 42.0239 66.0933C43.1083 64.4756 44.6105 63.6667 46.5305 63.6667ZM46.5305 67.3733C44.9839 67.3733 44.2105 69.3911 44.2105 73.4267C44.2105 77.4622 44.9839 79.48 46.5305 79.48C48.0772 79.48 48.8505 77.4622 48.8505 73.4267C48.8505 71.2756 48.6372 69.7289 48.2105 68.7867C47.8016 67.8444 47.2416 67.3733 46.5305 67.3733ZM80.6344 74.4133H60.9277V71.4533H68.8744V70.52H62.1277V63.4267H79.461V66.3333H65.941V67.6133H79.6744V70.52H72.7144V71.4533H80.6344V74.4133ZM79.701 81.3467V83.9067H62.101V78.4667H75.7277V77.72H62.0477V75.1867H79.5144V80.6H65.8877V81.3467H79.701Z" fill="white"/>
</g>
<rect x="1.5" y="1.5" width="297" height="97" rx="8.5" stroke="black" stroke-width="3"/>
<defs>
<linearGradient id="paint0_linear_228_4802" x1="0" y1="50" x2="300" y2="50" gradientUnits="userSpaceOnUse">
<stop stop-color="#812FA7"/>
<stop offset="1" stop-color="#8A49D5"/>
</linearGradient>
<clipPath id="clip0_228_4802">
<rect width="300" height="100" rx="10" fill="white"/>
</clipPath>
</defs>
</svg>
