<svg width="590" height="86" viewBox="0 0 590 86" fill="none" xmlns="http://www.w3.org/2000/svg">
<path d="M125.611 51.5046C104.988 48.2332 102.679 40.8085 104.103 37.5051C112.451 24.3681 144.346 23.6174 178.232 22.9241C212.117 22.2308 198.184 21.8282 220.127 20.7899C242.07 19.7516 236.051 21.2499 262.119 15.3139C288.188 9.37793 292.121 11.1639 310.083 10.0105C328.045 8.85719 363.824 11.5631 383.536 18.8216C403.247 26.0802 405.141 29.4794 416.89 36.5079C428.64 43.5364 420.726 41.6356 442.476 47.2807C464.226 52.9259 466.265 51.3125 490.102 53.6734C513.939 56.0343 537.727 60.0661 555.545 63.9254C573.362 67.7847 593.17 71.7014 586.812 84.8959C580.455 98.0904 486.663 103.742 474.624 106.739C462.585 109.736 462.44 114.748 464.286 119.818C466.131 124.888 482.103 123.678 473.948 130.131C465.794 136.584 451.812 137.853 425.792 142.118C399.771 146.383 373.848 147.306 347.972 146.559C322.096 145.811 304.279 141.952 288.452 138.15C272.625 134.348 260.876 127.32 236.99 126.63C217.882 126.078 173.104 131.473 153.103 134.24C147.763 135.2 132.383 134.31 113.584 123.065C90.0847 109.008 86.1038 108.893 66.3443 103.305C46.5848 97.7173 28.671 97.1997 6.96938 89.8837C-10.392 84.0309 18.6668 75.7287 35.3664 72.3092C74.0411 66.7374 146.235 54.7761 125.611 51.5046Z" fill="white" fill-opacity="0.1"/>
</svg>
