<svg width="588" height="77" viewBox="0 0 588 77" fill="none" xmlns="http://www.w3.org/2000/svg">
<path d="M124.611 42.5046C103.988 39.2332 101.679 31.8085 103.103 28.5051C111.451 15.3681 143.346 14.6174 177.232 13.9241C211.117 13.2308 197.184 12.8282 219.127 11.7899C241.07 10.7516 235.051 12.2499 261.119 6.31394C287.188 0.377929 291.121 2.16387 309.083 1.01053C327.045 -0.142809 362.824 2.56313 382.536 9.82165C402.247 17.0802 404.141 20.4794 415.89 27.5079C427.64 34.5364 419.726 32.6356 441.476 38.2807C463.226 43.9259 465.265 42.3125 489.102 44.6734C512.939 47.0343 536.727 51.0661 554.545 54.9254C572.362 58.7847 592.17 62.7014 585.812 75.8959C579.455 89.0904 485.663 94.7421 473.624 97.7388C461.585 100.736 461.44 105.748 463.286 110.818C465.131 115.888 481.103 114.678 472.948 121.131C464.793 127.584 450.812 128.853 424.792 133.118C398.771 137.383 372.847 138.306 346.972 137.559C321.096 136.811 303.279 132.952 287.452 129.15C271.625 125.348 259.876 118.32 235.99 117.63C216.882 117.078 172.103 122.473 152.103 125.24C146.763 126.2 131.383 125.31 112.584 114.065C89.0846 100.008 85.1037 99.8926 65.3442 94.3049C45.5847 88.7173 27.671 88.1997 5.96932 80.8837C-11.392 75.0309 17.6668 66.7287 34.3663 63.3092C73.041 57.7374 145.235 45.7761 124.611 42.5046Z" fill="url(#paint0_linear_869_4252)" fill-opacity="0.5"/>
<defs>
<linearGradient id="paint0_linear_869_4252" x1="1.12218" y1="59.5388" x2="586.878" y2="76.4612" gradientUnits="userSpaceOnUse">
<stop stop-color="#FE9507"/>
<stop offset="1" stop-color="#FE9406" stop-opacity="0.5"/>
</linearGradient>
</defs>
</svg>
