<svg width="300" height="100" viewBox="0 0 300 100" fill="none" xmlns="http://www.w3.org/2000/svg">
<g clip-path="url(#clip0_228_4387)">
<rect width="300" height="100" rx="10" fill="url(#paint0_linear_228_4387)"/>
<path d="M6.31178 38.0141C11.7141 36.8658 15.1624 31.5558 14.0141 26.1535C12.8658 20.7512 7.55586 17.3029 2.15355 18.4512C-3.24876 19.5995 -6.69711 24.9094 -5.54881 30.3117C-4.40052 35.7141 0.909471 39.1624 6.31178 38.0141Z" stroke="white" stroke-opacity="0.2" stroke-width="2" stroke-linecap="round" stroke-linejoin="round"/>
<path d="M-4.64844 23.6147C-2.19548 24.952 -0.716973 26.8063 -0.212926 29.1776C0.291122 31.549 -0.305351 33.8443 -2.00235 36.0636M13.1144 32.8505C10.6612 31.5133 9.18248 29.6591 8.67844 27.2877C8.17446 24.9167 8.77093 22.6213 10.4679 20.4017" stroke="white" stroke-opacity="0.2" stroke-width="2" stroke-linecap="round" stroke-linejoin="round"/>
<path d="M42.8014 1.92401C46.4955 6.02866 52.8182 6.3583 56.9238 2.66396C58.5339 1.21829 59.6294 -0.712398 60.0445 -2.83605C60.3452 -4.35959 60.2866 -5.93225 59.8733 -7.42917C59.46 -8.92609 58.7034 -10.306 57.6636 -11.4595C56.6252 -12.6138 55.3319 -13.5103 53.8866 -14.0776C52.4412 -14.6449 50.8835 -14.8675 49.3371 -14.7277C47.1818 -14.5369 45.1472 -13.6494 43.5411 -12.1994C39.4369 -8.50333 39.1053 -2.18021 42.8014 1.92401Z" stroke="white" stroke-opacity="0.2" stroke-width="1.5"/>
<path d="M56.8569 2.58921C56.8569 2.58921 54.5671 -3.66232 51.8771 -6.65033C49.1871 -9.63834 43.6084 -12.1238 43.6084 -12.1238" stroke="white" stroke-opacity="0.2" stroke-width="1.5" stroke-linecap="round"/>
<path d="M60.0016 -6.25082C54.462 -6.28687 48.2598 0.0971529 47.7396 4.7776M52.7223 -14.2839C52.1858 -9.65114 46.1075 -3.36707 40.6198 -3.2843" stroke="white" stroke-opacity="0.2" stroke-width="1.5" stroke-linecap="round"/>
<path d="M10.8014 86.924C14.4955 91.0287 20.8182 91.3583 24.9238 87.664C26.5339 86.2183 27.6294 84.2876 28.0445 82.1639C28.3452 80.6404 28.2866 79.0677 27.8733 77.5708C27.46 76.0739 26.7034 74.694 25.6636 73.5405C24.6252 72.3862 23.3319 71.4897 21.8866 70.9224C20.4412 70.3551 18.8835 70.1325 17.3371 70.2723C15.1818 70.4631 13.1472 71.3506 11.5411 72.8006C7.43691 76.4967 7.10531 82.8198 10.8014 86.924Z" stroke="white" stroke-opacity="0.2" stroke-width="1.5"/>
<path d="M24.8569 87.5892C24.8569 87.5892 22.5671 81.3377 19.8771 78.3497C17.1871 75.3617 11.6084 72.8762 11.6084 72.8762" stroke="white" stroke-opacity="0.2" stroke-width="1.5" stroke-linecap="round"/>
<path d="M28.0016 78.7492C22.462 78.7131 16.2598 85.0972 15.7396 89.7776M20.7223 70.7161C20.1858 75.3489 14.1075 81.6329 8.61982 81.7157" stroke="white" stroke-opacity="0.2" stroke-width="1.5" stroke-linecap="round"/>
<path d="M59.2314 38.5734C54.4472 41.3334 52.8133 47.4503 55.5724 52.2306C58.3315 57.0104 64.4498 58.6486 69.2297 55.89C74.0144 53.1299 75.6478 47.0127 72.8892 42.2328C70.1285 37.4477 64.0112 35.8143 59.2314 38.5734Z" stroke="white" stroke-opacity="0.2" stroke-width="2" stroke-miterlimit="2" stroke-linecap="round" stroke-linejoin="round"/>
<path d="M68.8115 44.726L63.0891 41.853M68.8115 44.726L68.1026 51.0108M68.8115 44.726L72.9013 42.3232M63.0891 41.853L59.03 46.8052M63.0891 41.853L62.1535 37.4514M59.03 46.8052L62.2338 52.2582M59.03 46.8052L54.3165 46.2735M62.2338 52.2582L68.1026 51.0108M62.2338 52.2582L60.027 56.3055M68.1026 51.0108L71.7648 53.8105" stroke="white" stroke-opacity="0.2" stroke-width="2" stroke-miterlimit="2" stroke-linecap="round" stroke-linejoin="round"/>
<path d="M112.312 24.0144C117.714 22.8661 121.162 17.5561 120.014 12.1538C118.866 6.75145 113.556 3.3031 108.154 4.4514C102.751 5.5997 99.3029 10.9097 100.451 16.312C101.599 21.7143 106.909 25.1626 112.312 24.0144Z" stroke="white" stroke-opacity="0.2" stroke-width="2" stroke-linecap="round" stroke-linejoin="round"/>
<path d="M101.352 9.61499C103.805 10.9522 105.283 12.8065 105.787 15.1779C106.291 17.5492 105.695 19.8446 103.998 22.0639M119.114 18.8507C116.661 17.5136 115.182 15.6593 114.678 13.2879C114.174 10.9169 114.771 8.62157 116.468 6.40192" stroke="white" stroke-opacity="0.2" stroke-width="2" stroke-linecap="round" stroke-linejoin="round"/>
<path d="M80.3118 109.014C85.7141 107.866 89.1624 102.556 88.0141 97.1538C86.8658 91.7515 81.5559 88.3031 76.1535 89.4514C70.7512 90.5997 67.3029 95.9097 68.4512 101.312C69.5995 106.714 74.9095 110.163 80.3118 109.014Z" stroke="white" stroke-opacity="0.2" stroke-width="2" stroke-linecap="round" stroke-linejoin="round"/>
<path d="M69.3516 94.615C71.8045 95.9522 73.283 97.8065 73.7871 100.178C74.2911 102.549 73.6946 104.845 71.9977 107.064M87.1144 103.851C84.6612 102.514 83.1825 100.659 82.6784 98.2879C82.1745 95.9169 82.7709 93.6216 84.4679 91.4019" stroke="white" stroke-opacity="0.2" stroke-width="2" stroke-linecap="round" stroke-linejoin="round"/>
<path d="M116.801 72.924C120.496 77.0287 126.818 77.3583 130.924 73.664C132.534 72.2183 133.629 70.2876 134.045 68.1639C134.345 66.6404 134.287 65.0677 133.873 63.5708C133.46 62.0739 132.703 60.694 131.664 59.5405C130.625 58.3862 129.332 57.4897 127.887 56.9224C126.441 56.3551 124.884 56.1325 123.337 56.2723C121.182 56.4631 119.147 57.3506 117.541 58.8006C113.437 62.4967 113.105 68.8198 116.801 72.924Z" stroke="white" stroke-opacity="0.2" stroke-width="1.5"/>
<path d="M130.857 73.5892C130.857 73.5892 128.567 67.3377 125.877 64.3497C123.187 61.3617 117.608 58.8762 117.608 58.8762" stroke="white" stroke-opacity="0.2" stroke-width="1.5" stroke-linecap="round"/>
<path d="M134.002 64.7492C128.462 64.7131 122.26 71.0972 121.74 75.7776M126.722 56.7161C126.186 61.3489 120.108 67.6329 114.62 67.7157" stroke="white" stroke-opacity="0.2" stroke-width="1.5" stroke-linecap="round"/>
<path d="M165.231 24.5734C160.447 27.3334 158.813 33.4503 161.572 38.2306C164.332 43.0104 170.45 44.6486 175.23 41.89C180.014 39.1299 181.648 33.0127 178.889 28.2328C176.128 23.4477 170.011 21.8143 165.231 24.5734Z" stroke="white" stroke-opacity="0.2" stroke-width="2" stroke-miterlimit="2" stroke-linecap="round" stroke-linejoin="round"/>
<path d="M174.811 30.726L169.089 27.853M174.811 30.726L174.103 37.0108M174.811 30.726L178.901 28.3232M169.089 27.853L165.03 32.8052M169.089 27.853L168.153 23.4514M165.03 32.8052L168.234 38.2582M165.03 32.8052L160.316 32.2735M168.234 38.2582L174.103 37.0108M168.234 38.2582L166.027 42.3055M174.103 37.0108L177.765 39.8105" stroke="white" stroke-opacity="0.2" stroke-width="2" stroke-miterlimit="2" stroke-linecap="round" stroke-linejoin="round"/>
<path d="M218.312 10.0144C223.714 8.86606 227.162 3.55607 226.014 -1.84624C224.866 -7.24855 219.556 -10.6969 214.154 -9.5486C208.751 -8.4003 205.303 -3.09032 206.451 2.31199C207.599 7.7143 212.909 11.1626 218.312 10.0144Z" stroke="white" stroke-opacity="0.2" stroke-width="2" stroke-linecap="round" stroke-linejoin="round"/>
<path d="M207.352 -4.38501C209.805 -3.04779 211.283 -1.1935 211.787 1.17786C212.291 3.54921 211.695 5.84455 209.998 8.06388M225.114 4.8507C222.661 3.51355 221.182 1.6593 220.678 -0.712059C220.174 -3.08309 220.771 -5.37843 222.468 -7.59808" stroke="white" stroke-opacity="0.2" stroke-width="2" stroke-linecap="round" stroke-linejoin="round"/>
<path d="M186.312 95.0144C191.714 93.8661 195.162 88.5561 194.014 83.1538C192.866 77.7515 187.556 74.3031 182.154 75.4514C176.751 76.5997 173.303 81.9097 174.451 87.312C175.599 92.7143 180.909 96.1626 186.312 95.0144Z" stroke="white" stroke-opacity="0.2" stroke-width="2" stroke-linecap="round" stroke-linejoin="round"/>
<path d="M175.352 80.615C177.805 81.9522 179.283 83.8065 179.787 86.1779C180.291 88.5492 179.695 90.8446 177.998 93.0639M193.114 89.8507C190.661 88.5136 189.182 86.6593 188.678 84.2879C188.174 81.9169 188.771 79.6216 190.468 77.4019" stroke="white" stroke-opacity="0.2" stroke-width="2" stroke-linecap="round" stroke-linejoin="round"/>
<path d="M222.801 58.924C226.496 63.0287 232.818 63.3583 236.924 59.664C238.534 58.2183 239.629 56.2876 240.045 54.1639C240.345 52.6404 240.287 51.0677 239.873 49.5708C239.46 48.0739 238.703 46.694 237.664 45.5405C236.625 44.3862 235.332 43.4897 233.887 42.9224C232.441 42.3551 230.884 42.1325 229.337 42.2723C227.182 42.4631 225.147 43.3506 223.541 44.8006C219.437 48.4967 219.105 54.8198 222.801 58.924Z" stroke="white" stroke-opacity="0.2" stroke-width="1.5"/>
<path d="M236.857 59.5892C236.857 59.5892 234.567 53.3377 231.877 50.3497C229.187 47.3617 223.608 44.8762 223.608 44.8762" stroke="white" stroke-opacity="0.2" stroke-width="1.5" stroke-linecap="round"/>
<path d="M240.002 50.7492C234.462 50.7131 228.26 57.0972 227.74 61.7776M232.722 42.7161C232.186 47.3489 226.108 53.6329 220.62 53.7157" stroke="white" stroke-opacity="0.2" stroke-width="1.5" stroke-linecap="round"/>
<path d="M271.231 10.5734C266.447 13.3334 264.813 19.4503 267.572 24.2306C270.332 29.0104 276.45 30.6486 281.23 27.89C286.014 25.1299 287.648 19.0127 284.889 14.2328C282.128 9.44767 276.011 7.81433 271.231 10.5734Z" stroke="white" stroke-opacity="0.2" stroke-width="2" stroke-miterlimit="2" stroke-linecap="round" stroke-linejoin="round"/>
<path d="M280.811 16.726L275.089 13.853M280.811 16.726L280.103 23.0108M280.811 16.726L284.901 14.3232M275.089 13.853L271.03 18.8052M275.089 13.853L274.153 9.45135M271.03 18.8052L274.234 24.2582M271.03 18.8052L266.316 18.2735M274.234 24.2582L280.103 23.0108M274.234 24.2582L272.027 28.3055M280.103 23.0108L283.765 25.8105" stroke="white" stroke-opacity="0.2" stroke-width="2" stroke-miterlimit="2" stroke-linecap="round" stroke-linejoin="round"/>
<path d="M239.231 95.5734C234.447 98.3334 232.813 104.45 235.572 109.231C238.332 114.01 244.45 115.649 249.23 112.89C254.014 110.13 255.648 104.013 252.889 99.2328C250.128 94.4477 244.011 92.8143 239.231 95.5734Z" stroke="white" stroke-opacity="0.2" stroke-width="2" stroke-miterlimit="2" stroke-linecap="round" stroke-linejoin="round"/>
<path d="M248.811 101.726L243.089 98.853M248.811 101.726L248.103 108.011M248.811 101.726L252.901 99.3232M243.089 98.853L239.03 103.805M243.089 98.853L242.153 94.4514M239.03 103.805L242.234 109.258M239.03 103.805L234.316 103.274M242.234 109.258L248.103 108.011M242.234 109.258L240.027 113.305M248.103 108.011L251.765 110.811" stroke="white" stroke-opacity="0.2" stroke-width="2" stroke-miterlimit="2" stroke-linecap="round" stroke-linejoin="round"/>
<path d="M292.312 81.0144C297.714 79.8661 301.162 74.5561 300.014 69.1538C298.866 63.7515 293.556 60.3031 288.154 61.4514C282.751 62.5997 279.303 67.9097 280.451 73.312C281.599 78.7143 286.909 82.1626 292.312 81.0144Z" stroke="white" stroke-opacity="0.2" stroke-width="2" stroke-linecap="round" stroke-linejoin="round"/>
<path d="M281.352 66.615C283.805 67.9522 285.283 69.8065 285.787 72.1779C286.291 74.5492 285.695 76.8446 283.998 79.0639M299.114 75.8507C296.661 74.5136 295.182 72.6593 294.678 70.2879C294.174 67.9169 294.771 65.6216 296.468 63.4019" stroke="white" stroke-opacity="0.2" stroke-width="2" stroke-linecap="round" stroke-linejoin="round"/>
<path d="M28.4267 71.2133C27.2711 72.8489 25.8844 74.1378 24.2667 75.08C22.6489 76.0044 20.9244 76.4756 19.0933 76.4933V72.6533C20.3733 72.6533 21.6 72.2533 22.7733 71.4533C23.9467 70.6533 24.9333 69.5511 25.7333 68.1467C26.5333 66.7422 27.0489 65.1422 27.28 63.3467L31.2 63.9867C31.0044 65.4622 30.6489 66.8133 30.1333 68.04L38.4267 73.32L36.4 76.6L28.4267 71.2133ZM38.4 79.4V83.1867H18.6933V79.4H38.4ZM59.5172 83.1867H39.8105V79.4533H47.7305V76.2267H40.7172V72.5467H43.6772V67.6133H40.9039V63.9067H58.4505V67.6133H55.6772V72.5467H58.6372V76.2267H51.5972V79.4533H59.5172V83.1867ZM51.8372 72.5467V67.6133H47.5172V72.5467H51.8372ZM70.741 73.3733C69.6744 74.5644 68.3322 75.4978 66.7144 76.1733C65.1144 76.8311 63.3899 77.16 61.541 77.16V73.4267C63.1766 73.4267 64.661 73.0178 65.9944 72.2C67.3455 71.3822 68.2522 70.3067 68.7144 68.9733H61.941V65.24H68.7944V63.16H72.741V65.24H79.621V68.9733H72.9277C72.7855 69.5778 72.6522 70.0222 72.5277 70.3067L80.421 73.9067L78.7677 77.2667L70.741 73.3733ZM80.6344 83.1867H60.9277V79.4533H80.6344V83.1867Z" fill="white"/>
</g>
<rect x="1.5" y="1.5" width="297" height="97" rx="8.5" stroke="black" stroke-width="3"/>
<defs>
<linearGradient id="paint0_linear_228_4387" x1="0" y1="50" x2="300" y2="50" gradientUnits="userSpaceOnUse">
<stop stop-color="#1FB230"/>
<stop offset="1" stop-color="#4CC85A"/>
</linearGradient>
<clipPath id="clip0_228_4387">
<rect width="300" height="100" rx="10" fill="white"/>
</clipPath>
</defs>
</svg>
