<svg width="300" height="100" viewBox="0 0 300 100" fill="none" xmlns="http://www.w3.org/2000/svg">
<g clip-path="url(#clip0_228_2678)">
<rect width="300" height="100" rx="10" fill="#C3C3C3"/>
<path d="M6.31178 38.0141C11.7141 36.8658 15.1624 31.5558 14.0141 26.1535C12.8658 20.7512 7.55586 17.3029 2.15355 18.4512C-3.24876 19.5995 -6.69711 24.9094 -5.54881 30.3117C-4.40052 35.7141 0.909471 39.1624 6.31178 38.0141Z" stroke="white" stroke-opacity="0.2" stroke-width="2" stroke-linecap="round" stroke-linejoin="round"/>
<path d="M-4.64856 23.6147C-2.1956 24.952 -0.717095 26.8063 -0.213048 29.1776C0.291 31.549 -0.305474 33.8443 -2.00247 36.0636M13.1143 32.8505C10.661 31.5133 9.18236 29.6591 8.67831 27.2877C8.17434 24.9167 8.77081 22.6213 10.4677 20.4017" stroke="white" stroke-opacity="0.2" stroke-width="2" stroke-linecap="round" stroke-linejoin="round"/>
<path d="M42.8015 1.92401C46.4956 6.02866 52.8184 6.3583 56.924 2.66396C58.534 1.21829 59.6295 -0.712398 60.0446 -2.83605C60.3453 -4.35959 60.2867 -5.93225 59.8734 -7.42917C59.4601 -8.92609 58.7035 -10.306 57.6637 -11.4595C56.6253 -12.6138 55.3321 -13.5103 53.8867 -14.0776C52.4414 -14.6449 50.8837 -14.8675 49.3372 -14.7277C47.1819 -14.5369 45.1473 -13.6494 43.5413 -12.1994C39.437 -8.50333 39.1054 -2.18021 42.8015 1.92401Z" stroke="white" stroke-opacity="0.2" stroke-width="1.5"/>
<path d="M56.857 2.58921C56.857 2.58921 54.5672 -3.66232 51.8772 -6.65033C49.1872 -9.63834 43.6085 -12.1238 43.6085 -12.1238" stroke="white" stroke-opacity="0.2" stroke-width="1.5" stroke-linecap="round"/>
<path d="M60.0017 -6.25082C54.4622 -6.28687 48.2599 0.0971529 47.7397 4.7776M52.7225 -14.2839C52.1859 -9.65114 46.1077 -3.36707 40.6199 -3.2843" stroke="white" stroke-opacity="0.2" stroke-width="1.5" stroke-linecap="round"/>
<path d="M10.8015 86.924C14.4956 91.0287 20.8184 91.3583 24.924 87.664C26.534 86.2183 27.6295 84.2876 28.0446 82.1639C28.3453 80.6404 28.2867 79.0677 27.8734 77.5708C27.4601 76.0739 26.7035 74.694 25.6637 73.5405C24.6253 72.3862 23.3321 71.4897 21.8867 70.9224C20.4414 70.3551 18.8837 70.1325 17.3372 70.2723C15.1819 70.4631 13.1473 71.3506 11.5413 72.8006C7.43703 76.4967 7.10543 82.8198 10.8015 86.924Z" stroke="white" stroke-opacity="0.2" stroke-width="1.5"/>
<path d="M24.857 87.5892C24.857 87.5892 22.5672 81.3377 19.8772 78.3497C17.1872 75.3617 11.6085 72.8762 11.6085 72.8762" stroke="white" stroke-opacity="0.2" stroke-width="1.5" stroke-linecap="round"/>
<path d="M28.0017 78.7492C22.4622 78.7131 16.2599 85.0972 15.7397 89.7776M20.7225 70.7161C20.1859 75.3489 14.1077 81.6329 8.61994 81.7157" stroke="white" stroke-opacity="0.2" stroke-width="1.5" stroke-linecap="round"/>
<path d="M59.2315 38.5734C54.4473 41.3334 52.8134 47.4503 55.5726 52.2306C58.3316 57.0104 64.4499 58.6486 69.2299 55.89C74.0145 53.1299 75.6479 47.0127 72.8893 42.2328C70.1286 37.4477 64.0113 35.8143 59.2315 38.5734Z" stroke="white" stroke-opacity="0.2" stroke-width="2" stroke-miterlimit="2" stroke-linecap="round" stroke-linejoin="round"/>
<path d="M68.8116 44.726L63.0892 41.853M68.8116 44.726L68.1028 51.0108M68.8116 44.726L72.9014 42.3232M63.0892 41.853L59.0301 46.8052M63.0892 41.853L62.1536 37.4514M59.0301 46.8052L62.2339 52.2582M59.0301 46.8052L54.3166 46.2735M62.2339 52.2582L68.1028 51.0108M62.2339 52.2582L60.0271 56.3055M68.1028 51.0108L71.7649 53.8105" stroke="white" stroke-opacity="0.2" stroke-width="2" stroke-miterlimit="2" stroke-linecap="round" stroke-linejoin="round"/>
<path d="M112.312 24.0144C117.714 22.8661 121.162 17.5561 120.014 12.1538C118.866 6.75145 113.556 3.3031 108.154 4.4514C102.751 5.5997 99.3029 10.9097 100.451 16.312C101.599 21.7143 106.909 25.1626 112.312 24.0144Z" stroke="white" stroke-opacity="0.2" stroke-width="2" stroke-linecap="round" stroke-linejoin="round"/>
<path d="M101.351 9.61499C103.804 10.9522 105.283 12.8065 105.787 15.1779C106.291 17.5492 105.695 19.8446 103.998 22.0639M119.114 18.8507C116.661 17.5136 115.182 15.6593 114.678 13.2879C114.174 10.9169 114.771 8.62157 116.468 6.40192" stroke="white" stroke-opacity="0.2" stroke-width="2" stroke-linecap="round" stroke-linejoin="round"/>
<path d="M80.3118 109.014C85.7141 107.866 89.1624 102.556 88.0141 97.1538C86.8658 91.7515 81.5559 88.3031 76.1535 89.4514C70.7512 90.5997 67.3029 95.9097 68.4512 101.312C69.5995 106.714 74.9095 110.163 80.3118 109.014Z" stroke="white" stroke-opacity="0.2" stroke-width="2" stroke-linecap="round" stroke-linejoin="round"/>
<path d="M69.3514 94.615C71.8044 95.9522 73.2829 97.8065 73.787 100.178C74.291 102.549 73.6945 104.845 71.9975 107.064M87.1143 103.851C84.661 102.514 83.1824 100.659 82.6783 98.2879C82.1743 95.9169 82.7708 93.6216 84.4677 91.4019" stroke="white" stroke-opacity="0.2" stroke-width="2" stroke-linecap="round" stroke-linejoin="round"/>
<path d="M116.802 72.924C120.496 77.0287 126.818 77.3583 130.924 73.664C132.534 72.2183 133.629 70.2876 134.045 68.1639C134.345 66.6404 134.287 65.0677 133.873 63.5708C133.46 62.0739 132.704 60.694 131.664 59.5405C130.625 58.3862 129.332 57.4897 127.887 56.9224C126.441 56.3551 124.884 56.1325 123.337 56.2723C121.182 56.4631 119.147 57.3506 117.541 58.8006C113.437 62.4967 113.105 68.8198 116.802 72.924Z" stroke="white" stroke-opacity="0.2" stroke-width="1.5"/>
<path d="M130.857 73.5892C130.857 73.5892 128.567 67.3377 125.877 64.3497C123.187 61.3617 117.609 58.8762 117.609 58.8762" stroke="white" stroke-opacity="0.2" stroke-width="1.5" stroke-linecap="round"/>
<path d="M134.002 64.7492C128.462 64.7131 122.26 71.0972 121.74 75.7776M126.722 56.7161C126.186 61.3489 120.108 67.6329 114.62 67.7157" stroke="white" stroke-opacity="0.2" stroke-width="1.5" stroke-linecap="round"/>
<path d="M165.232 24.5734C160.447 27.3334 158.813 33.4503 161.573 38.2306C164.332 43.0104 170.45 44.6486 175.23 41.89C180.015 39.1299 181.648 33.0127 178.889 28.2328C176.129 23.4477 170.011 21.8143 165.232 24.5734Z" stroke="white" stroke-opacity="0.2" stroke-width="2" stroke-miterlimit="2" stroke-linecap="round" stroke-linejoin="round"/>
<path d="M174.812 30.726L169.089 27.853M174.812 30.726L174.103 37.0108M174.812 30.726L178.901 28.3232M169.089 27.853L165.03 32.8052M169.089 27.853L168.154 23.4514M165.03 32.8052L168.234 38.2582M165.03 32.8052L160.317 32.2735M168.234 38.2582L174.103 37.0108M168.234 38.2582L166.027 42.3055M174.103 37.0108L177.765 39.8105" stroke="white" stroke-opacity="0.2" stroke-width="2" stroke-miterlimit="2" stroke-linecap="round" stroke-linejoin="round"/>
<path d="M218.312 10.0144C223.714 8.86606 227.162 3.55607 226.014 -1.84624C224.866 -7.24855 219.556 -10.6969 214.154 -9.5486C208.751 -8.4003 205.303 -3.09032 206.451 2.31199C207.599 7.7143 212.909 11.1626 218.312 10.0144Z" stroke="white" stroke-opacity="0.2" stroke-width="2" stroke-linecap="round" stroke-linejoin="round"/>
<path d="M207.351 -4.38501C209.804 -3.04779 211.283 -1.1935 211.787 1.17786C212.291 3.54921 211.695 5.84455 209.998 8.06388M225.114 4.8507C222.661 3.51355 221.182 1.6593 220.678 -0.712059C220.174 -3.08309 220.771 -5.37843 222.468 -7.59808" stroke="white" stroke-opacity="0.2" stroke-width="2" stroke-linecap="round" stroke-linejoin="round"/>
<path d="M186.312 95.0144C191.714 93.8661 195.162 88.5561 194.014 83.1538C192.866 77.7515 187.556 74.3031 182.154 75.4514C176.751 76.5997 173.303 81.9097 174.451 87.312C175.599 92.7143 180.909 96.1626 186.312 95.0144Z" stroke="white" stroke-opacity="0.2" stroke-width="2" stroke-linecap="round" stroke-linejoin="round"/>
<path d="M175.351 80.615C177.804 81.9522 179.283 83.8065 179.787 86.1779C180.291 88.5492 179.695 90.8446 177.998 93.0639M193.114 89.8507C190.661 88.5136 189.182 86.6593 188.678 84.2879C188.174 81.9169 188.771 79.6216 190.468 77.4019" stroke="white" stroke-opacity="0.2" stroke-width="2" stroke-linecap="round" stroke-linejoin="round"/>
<path d="M222.802 58.924C226.496 63.0287 232.818 63.3583 236.924 59.664C238.534 58.2183 239.629 56.2876 240.045 54.1639C240.345 52.6404 240.287 51.0677 239.873 49.5708C239.46 48.0739 238.704 46.694 237.664 45.5405C236.625 44.3862 235.332 43.4897 233.887 42.9224C232.441 42.3551 230.884 42.1325 229.337 42.2723C227.182 42.4631 225.147 43.3506 223.541 44.8006C219.437 48.4967 219.105 54.8198 222.802 58.924Z" stroke="white" stroke-opacity="0.2" stroke-width="1.5"/>
<path d="M236.857 59.5892C236.857 59.5892 234.567 53.3377 231.877 50.3497C229.187 47.3617 223.609 44.8762 223.609 44.8762" stroke="white" stroke-opacity="0.2" stroke-width="1.5" stroke-linecap="round"/>
<path d="M240.002 50.7492C234.462 50.7131 228.26 57.0972 227.74 61.7776M232.722 42.7161C232.186 47.3489 226.108 53.6329 220.62 53.7157" stroke="white" stroke-opacity="0.2" stroke-width="1.5" stroke-linecap="round"/>
<path d="M271.232 10.5734C266.447 13.3334 264.813 19.4503 267.573 24.2306C270.332 29.0104 276.45 30.6486 281.23 27.89C286.015 25.1299 287.648 19.0127 284.889 14.2328C282.129 9.44767 276.011 7.81433 271.232 10.5734Z" stroke="white" stroke-opacity="0.2" stroke-width="2" stroke-miterlimit="2" stroke-linecap="round" stroke-linejoin="round"/>
<path d="M280.812 16.726L275.089 13.853M280.812 16.726L280.103 23.0108M280.812 16.726L284.901 14.3232M275.089 13.853L271.03 18.8052M275.089 13.853L274.154 9.45135M271.03 18.8052L274.234 24.2582M271.03 18.8052L266.317 18.2735M274.234 24.2582L280.103 23.0108M274.234 24.2582L272.027 28.3055M280.103 23.0108L283.765 25.8105" stroke="white" stroke-opacity="0.2" stroke-width="2" stroke-miterlimit="2" stroke-linecap="round" stroke-linejoin="round"/>
<path d="M239.232 95.5734C234.447 98.3334 232.813 104.45 235.573 109.231C238.332 114.01 244.45 115.649 249.23 112.89C254.015 110.13 255.648 104.013 252.889 99.2328C250.129 94.4477 244.011 92.8143 239.232 95.5734Z" stroke="white" stroke-opacity="0.2" stroke-width="2" stroke-miterlimit="2" stroke-linecap="round" stroke-linejoin="round"/>
<path d="M248.812 101.726L243.089 98.853M248.812 101.726L248.103 108.011M248.812 101.726L252.901 99.3232M243.089 98.853L239.03 103.805M243.089 98.853L242.154 94.4514M239.03 103.805L242.234 109.258M239.03 103.805L234.317 103.274M242.234 109.258L248.103 108.011M242.234 109.258L240.027 113.305M248.103 108.011L251.765 110.811" stroke="white" stroke-opacity="0.2" stroke-width="2" stroke-miterlimit="2" stroke-linecap="round" stroke-linejoin="round"/>
<path d="M292.312 81.0144C297.714 79.8661 301.162 74.5561 300.014 69.1538C298.866 63.7515 293.556 60.3031 288.154 61.4514C282.751 62.5997 279.303 67.9097 280.451 73.312C281.599 78.7143 286.909 82.1626 292.312 81.0144Z" stroke="white" stroke-opacity="0.2" stroke-width="2" stroke-linecap="round" stroke-linejoin="round"/>
<path d="M281.351 66.615C283.804 67.9522 285.283 69.8065 285.787 72.1779C286.291 74.5492 285.695 76.8446 283.998 79.0639M299.114 75.8507C296.661 74.5136 295.182 72.6593 294.678 70.2879C294.174 67.9169 294.771 65.6216 296.468 63.4019" stroke="white" stroke-opacity="0.2" stroke-width="2" stroke-linecap="round" stroke-linejoin="round"/>
<path d="M28.3467 70.6267C27.2089 72.4044 25.8311 73.8089 24.2133 74.84C22.6133 75.8533 20.9333 76.3689 19.1733 76.3867V73.5067C20.5067 73.5067 21.7867 73.0622 23.0133 72.1733C24.2578 71.2844 25.3156 70.0756 26.1867 68.5467C27.0578 67.0178 27.6356 65.32 27.92 63.4533L30.88 63.96C30.5956 65.5778 30.1778 67 29.6267 68.2267L38.08 74.04L36.5333 76.4667L28.3467 70.6267ZM38.32 80.2V83.0267H18.7733V80.2H38.32ZM59.4372 83.0267H39.8905V80.2H48.2105V76.12H40.8772V73.3467H44.1305V66.92H41.0639V64.1467H58.2905V66.92H55.2239V73.3467H58.4772V76.12H51.1172V80.2H59.4372V83.0267ZM52.3439 73.3467V66.92H47.0105V73.3467H52.3439ZM70.5544 72.6C69.5766 73.8978 68.3055 74.9289 66.741 75.6933C65.1944 76.44 63.4788 76.8489 61.5944 76.92V74.12C63.4966 74.0133 65.1499 73.4444 66.5544 72.4133C67.9766 71.3644 68.8744 70.0133 69.2477 68.36H62.0477V65.56H69.2744V63.16H72.2344V65.56H79.5144V68.36H72.3944C72.2699 69.0889 72.0922 69.7289 71.861 70.28L80.1277 74.4933L78.8744 77.0267L70.5544 72.6ZM80.5544 83.0267H61.0077V80.2267H80.5544V83.0267Z" fill="white"/>
</g>
<defs>
<clipPath id="clip0_228_2678">
<rect width="300" height="100" rx="10" fill="white"/>
</clipPath>
</defs>
</svg>
