<svg width="422" height="120" viewBox="0 0 422 120" fill="none" xmlns="http://www.w3.org/2000/svg">
<g clip-path="url(#clip0_67_534)">
<path d="M254.29 17.5247C254.29 12.0018 258.669 8.46043 264.069 9.61472L275.81 12.1238V107.7C275.81 113.223 271.431 116.764 266.03 115.61L254.29 113.101V17.5247Z" fill="white"/>
<path d="M188.199 3.40799L244.932 15.533V35.6428L188.199 23.5177V3.40799Z" fill="white"/>
<path d="M186.29 71.0449C198.137 65.5594 199.453 38.2256 198.63 25.2443L218.374 29.4641C220.743 79.8559 200.934 91.434 190.733 90.9241L186.29 71.0449Z" fill="white"/>
<path d="M210.744 85.6305C223.23 79.0514 224.725 46.2341 223.913 30.6477L244.885 35.13C246.445 91.8296 228.302 99.8416 215.133 104.183L210.744 85.6305Z" fill="white"/>
<path d="M94.3008 42.1728C94.3008 39.4113 96.49 37.6402 99.1906 38.2168L184.29 56.3876V65.4512C184.29 68.2127 182.101 69.9838 179.401 69.4072L94.3008 51.2364V42.1728Z" fill="white"/>
<path d="M156.615 80.8551L177.596 85.3351V89.262L156.615 84.782V80.8551Z" fill="white"/>
<path d="M101.301 84.7517L122.282 89.2317V93.1586L101.301 88.6786V84.7517Z" fill="white"/>
<path d="M101.301 62.2637C101.301 59.5023 103.49 57.7311 106.191 58.3078L177.596 73.5545V85.3351L101.301 69.0443V62.2637Z" fill="white"/>
<path d="M101.301 82.9711C101.301 77.4483 105.679 73.906 111.08 75.0593L177.596 89.262V91.0426C177.596 96.5654 173.218 100.108 167.817 98.9544L101.301 84.7517V82.9711Z" fill="white"/>
<path d="M101.301 88.6786L177.596 104.969V111.75C177.596 114.511 175.407 116.283 172.707 115.706L101.301 100.459V88.6786Z" fill="white"/>
<path d="M101.301 4C101.301 1.23857 103.49 -0.53255 106.191 0.0440787L122.282 3.47998V13.2057L101.301 8.72575V4Z" fill="white"/>
<path d="M156.615 10.8109L177.596 15.2908V25.0166L156.615 20.5366V10.8109Z" fill="white"/>
<path d="M177.597 45.4493C177.597 48.2106 175.407 49.9817 172.707 49.4052L101.301 34.1584V8.72577L177.597 25.0167V45.4493ZM124.225 23.9527C123.152 23.7236 122.282 24.4277 122.282 25.5251C122.282 26.6223 123.152 27.6972 124.225 27.9264L154.672 34.4274C155.745 34.6565 156.615 33.9533 156.615 32.856C156.615 31.7587 155.745 30.6829 154.672 30.4538L124.225 23.9527Z" fill="white"/>
<path d="M60 18C60 12.4772 64.3793 8.93085 69.7815 10.0791L81.5192 12.5741V107.574C81.5192 113.097 77.1399 116.643 71.7378 115.495L60 113V18Z" fill="white"/>
<path d="M81.5193 54.0741L91.3008 56.1532V68.1532C91.3008 73.676 86.9214 77.2223 81.5193 76.0741V54.0741Z" fill="white"/>
<path d="M52.82 99.2272C52.82 104.75 48.4407 108.296 43.0385 107.148L0 98V13C0 7.47715 4.37932 3.93085 9.78148 5.07912L52.82 14.2272V99.2272ZM23.424 29.9779C22.8839 29.8632 22.446 30.218 22.4458 30.77V34.9165C22.446 35.4686 22.8839 36.0096 23.424 36.1244L23.167 36.0698L22.4458 51.2817C22.4197 51.2972 19.5631 53.0025 19.563 59.1201V81.3994C19.563 81.4094 19.5676 84.4736 22.4458 85.0855L30.3742 86.7707C33.257 87.3834 33.257 85.3346 33.257 84.3102V62.0309C33.2569 57.1145 31.3352 53.9397 30.3742 52.967L29.653 37.4484L29.396 37.3938C29.9361 37.5086 30.374 37.1538 30.3742 36.6017V32.4552C30.3739 31.9031 29.936 31.3622 29.396 31.2473L23.424 29.9779Z" fill="white"/>
<path d="M318.023 32.3421L339.543 36.891V52.8098L318.023 48.2609V32.3421Z" fill="white"/>
<path d="M282.81 60.7157L304.329 65.2646V81.1834L282.81 76.6345V60.7157Z" fill="white"/>
<path d="M282.81 15C282.81 9.47716 287.19 5.92593 292.593 7.06813L339.543 16.9925V36.891L282.81 24.8985V15Z" fill="white"/>
<path d="M282.81 40.8172L339.543 52.8098V72.7082L282.81 60.7157V40.8172Z" fill="white"/>
<path d="M282.81 76.6345L339.543 88.627V98.5255C339.543 104.048 335.163 107.6 329.759 106.457L282.81 96.5329V76.6345Z" fill="white"/>
<path d="M348.81 18.4823C348.81 12.9594 353.19 9.4086 358.593 10.5513L370.329 13.0331V107.5C370.329 113.023 365.949 116.574 360.545 115.431L348.81 112.949V18.4823Z" fill="white"/>
<path d="M413.729 103.264C415.888 103.701 416.214 104.68 414.458 105.45L401.741 111.027C399.985 111.797 396.812 112.067 394.653 111.629L379.019 108.459C376.861 108.022 376.534 107.043 378.29 106.273L391.008 100.696C392.764 99.9259 395.937 99.6564 398.096 100.094L413.729 103.264ZM387.821 106.166C386.742 105.947 385.155 106.082 384.277 106.467C383.399 106.852 383.562 107.342 384.642 107.56C385.721 107.779 387.307 107.645 388.185 107.26C389.063 106.875 388.9 106.385 387.821 106.166ZM398.569 108.345C397.49 108.127 395.903 108.261 395.025 108.646C394.147 109.031 394.31 109.521 395.39 109.74C396.469 109.958 398.056 109.824 398.933 109.439C399.811 109.054 399.648 108.564 398.569 108.345ZM397.964 105.165C396.885 104.946 395.298 105.08 394.42 105.465C393.542 105.85 393.705 106.34 394.785 106.559C395.864 106.778 397.451 106.643 398.328 106.258C399.206 105.873 399.043 105.383 397.964 105.165ZM397.359 101.984C396.28 101.765 394.693 101.899 393.815 102.284C392.937 102.669 393.1 103.159 394.18 103.378C395.259 103.597 396.846 103.462 397.723 103.077C398.601 102.692 398.438 102.202 397.359 101.984ZM408.107 104.163C407.028 103.944 405.441 104.079 404.563 104.464C403.685 104.849 403.848 105.338 404.928 105.557C406.007 105.776 407.594 105.641 408.472 105.256C409.35 104.871 409.186 104.382 408.107 104.163Z" fill="#FE5500"/>
</g>
<defs>
<clipPath id="clip0_67_534">
<rect width="422" height="120" fill="white"/>
</clipPath>
</defs>
</svg>
