<svg width="287" height="81" viewBox="0 0 287 81" fill="none" xmlns="http://www.w3.org/2000/svg">
<path d="M175.542 14.8848C175.542 9.36193 179.92 5.8205 185.321 6.97479L190.397 8.05966V70.9411C190.397 76.4639 186.019 80.0054 180.618 78.8511L175.542 77.7662V14.8848Z" fill="black"/>
<path d="M129.918 2.04297L169.082 10.4131V24.2953L129.918 15.9251V2.04297Z" fill="black"/>
<path d="M128.6 48.7341C136.778 44.9473 137.687 26.0782 137.119 17.117L150.748 20.03C152.384 54.8165 138.709 62.8091 131.667 62.4571L128.6 48.7341Z" fill="black"/>
<path d="M145.481 58.8029C154.1 54.2612 155.133 31.6067 154.572 20.8472L169.049 23.9413C170.127 63.0822 157.602 68.6131 148.511 71.6101L145.481 58.8029Z" fill="black"/>
<path d="M65.0978 30.3516C65.0978 27.5901 67.2871 25.819 69.9876 26.3956L127.22 38.616V43.3244C127.22 46.0858 125.03 47.8569 122.33 47.2803L65.0978 35.06V30.3516Z" fill="black"/>
<path d="M108.115 55.5063L122.598 58.599V61.3098L108.115 58.2171V55.5063Z" fill="black"/>
<path d="M69.9301 58.1963L84.4139 61.2889V63.9997L69.9301 60.9071V58.1963Z" fill="black"/>
<path d="M69.9301 44.2207C69.9301 41.4593 72.1193 39.6882 74.8199 40.2648L122.598 50.4666V58.599L69.9301 47.3531V44.2207Z" fill="black"/>
<path d="M69.9301 58.1964C69.9301 53.705 73.4908 50.8243 77.8832 51.7621L122.598 61.3099V61.3099C122.598 65.8013 119.038 68.682 114.645 67.7441L69.9301 58.1964V58.1964Z" fill="black"/>
<path d="M69.9301 60.9072L122.598 72.1531V75.2855C122.598 78.0469 120.409 79.8181 117.709 79.2414L69.9301 69.0396V60.9072Z" fill="black"/>
<path d="M69.9301 4C69.9301 1.23858 72.1193 -0.53255 74.8199 0.0440787L84.4139 2.09262V8.80652L69.9301 5.71389V4Z" fill="black"/>
<path d="M108.115 7.15332L122.598 10.2459V16.9598L108.115 13.8672V7.15332Z" fill="black"/>
<path d="M122.598 29.5164C122.598 32.2778 120.409 34.0489 117.709 33.4723L69.9301 23.2705V5.71387L122.598 16.9597V29.5164ZM85.755 16.2257C85.0144 16.0677 84.4143 16.5532 84.4141 17.3104C84.4141 18.0679 85.0143 18.8105 85.755 18.9688L106.773 23.4567C107.514 23.6148 108.114 23.1285 108.114 22.371C108.114 21.6136 107.514 20.8718 106.773 20.7136L85.755 16.2257Z" fill="black"/>
<path d="M41.4193 12.116C41.4193 8.30342 44.4424 5.85534 48.1716 6.64801L56.2745 8.37032V73.9508C56.2745 77.7634 53.2513 80.2114 49.5221 79.4188L41.4193 77.6965V12.116Z" fill="black"/>
<path d="M56.2745 37.0186L63.0268 38.4539V46.7378C63.0268 50.5503 60.0037 52.9984 56.2745 52.2057V37.0186Z" fill="black"/>
<path fill-rule="evenodd" clip-rule="evenodd" d="M36.4627 68.1888C36.4627 72.0014 33.4396 74.4494 29.7104 73.6568L0 67.3416V8.66436C0 4.85182 3.02313 2.40373 6.75236 3.1964L36.4627 9.51154V68.1888ZM16.1701 20.3846C15.7973 20.3054 15.495 20.5503 15.4948 20.9314V23.7938C15.4949 24.1749 15.7972 24.5484 16.1701 24.6276L15.9927 24.5899L15.4948 35.0911C15.4768 35.1017 13.5048 36.2789 13.5047 40.5021V55.8819C13.5047 55.8888 13.508 58.0041 15.4948 58.4265L20.9679 59.5898C22.958 60.0128 22.958 58.5984 22.958 57.8913V42.5114C22.9579 39.1176 21.6313 36.9259 20.9679 36.2544L20.4701 25.5416L20.2927 25.5039C20.6655 25.5831 20.9678 25.3382 20.9679 24.9571V22.0947C20.9678 21.7136 20.6655 21.3402 20.2927 21.2609L16.1701 20.3846Z" fill="black"/>
<path d="M219.538 22.0171L234.394 25.1573V36.1464L219.538 33.0062V22.0171Z" fill="black"/>
<path d="M195.229 41.604L210.085 44.7442V55.7333L195.229 52.5931V41.604Z" fill="black"/>
<path d="M195.229 13.1421C195.229 7.61924 199.61 4.06802 205.013 5.21022L234.394 11.4208V25.1571L195.229 16.8784V13.1421Z" fill="black"/>
<path d="M195.229 27.8677L234.394 36.1464V49.8827L195.229 41.604V27.8677Z" fill="black"/>
<path d="M195.229 52.5928L234.394 60.8715V64.6078C234.394 70.1307 230.013 73.6819 224.61 72.5397L195.229 66.3291V52.5928Z" fill="black"/>
<path d="M240.791 15.5459C240.791 10.0231 245.171 6.47223 250.574 7.61491L255.646 8.68744V70.8031C255.646 76.326 251.265 79.8768 245.862 78.7341L240.791 77.6616V15.5459Z" fill="black"/>
<path d="M285.606 70.9753C287.096 71.2774 287.321 71.9533 286.109 72.4848L277.33 76.3346C276.118 76.8662 273.927 77.0522 272.437 76.7501L261.645 74.5619C260.155 74.2598 259.93 73.584 261.142 73.0524L269.921 69.2026C271.133 68.6711 273.324 68.4851 274.814 68.7872L285.606 70.9753ZM267.721 72.9789C266.976 72.8278 265.881 72.9208 265.274 73.1866C264.668 73.4524 264.781 73.7903 265.526 73.9414C266.271 74.0924 267.366 73.9994 267.973 73.7336C268.579 73.4679 268.466 73.13 267.721 72.9789ZM275.141 74.4832C274.395 74.3322 273.3 74.4252 272.694 74.691C272.088 74.9567 272.201 75.2946 272.946 75.4457C273.691 75.5968 274.786 75.5038 275.392 75.238C275.998 74.9722 275.886 74.6343 275.141 74.4832ZM274.723 72.2874C273.978 72.1363 272.883 72.2293 272.276 72.4951C271.67 72.7609 271.783 73.0988 272.528 73.2498C273.273 73.4009 274.368 73.3079 274.975 73.0421C275.581 72.7764 275.468 72.4384 274.723 72.2874ZM274.305 70.0915C273.56 69.9405 272.465 70.0335 271.859 70.2992C271.253 70.565 271.365 70.9029 272.11 71.054C272.856 71.205 273.951 71.1121 274.557 70.8463C275.163 70.5805 275.05 70.2426 274.305 70.0915ZM281.725 71.5959C280.98 71.4448 279.885 71.5378 279.278 71.8036C278.672 72.0694 278.785 72.4073 279.53 72.5583C280.275 72.7094 281.37 72.6164 281.976 72.3506C282.583 72.0849 282.47 71.7469 281.725 71.5959Z" fill="black"/>
</svg>
