<svg width="33" height="32" viewBox="0 0 33 32" fill="none" xmlns="http://www.w3.org/2000/svg">
<path d="M1.83325 27.9998L16.4999 2.6665L31.1666 27.9998H1.83325ZM16.4999 23.9998C16.8777 23.9998 17.1946 23.8718 17.4506 23.6158C17.7066 23.3598 17.8341 23.0434 17.8333 22.6665C17.8324 22.2896 17.7044 21.9732 17.4493 21.7172C17.1941 21.4612 16.8777 21.3332 16.4999 21.3332C16.1221 21.3332 15.8057 21.4612 15.5506 21.7172C15.2955 21.9732 15.1675 22.2896 15.1666 22.6665C15.1657 23.0434 15.2937 23.3603 15.5506 23.6172C15.8075 23.8741 16.1239 24.0016 16.4999 23.9998ZM15.1666 19.9998H17.8333V13.3332H15.1666V19.9998Z" fill="#FF0404"/>
</svg>
