<svg width="20" height="21" viewBox="0 0 20 21" fill="none" xmlns="http://www.w3.org/2000/svg">
<g clip-path="url(#clip0_613_16677)">
<path d="M10.7953 1.16339C10.6266 1.31339 9.31409 3.91808 9.31409 3.91808L8.33752 7.85714L12.1375 7.5087C12.1375 7.5087 15.2985 1.63058 15.3625 1.49464C15.4766 1.24776 15.5375 1.1462 15.1016 1.1462C14.6657 1.14464 10.9531 1.02276 10.7953 1.16339Z" fill="#176CC7"/>
<path d="M12.7625 7.2637C12.5734 7.16213 7.00464 7.07463 6.87339 7.2637C6.75464 7.43557 6.82183 8.33713 6.86714 8.44495C6.94839 8.63245 8.74683 9.44963 8.74683 9.44963L8.71245 9.82151C8.71245 9.82151 8.85933 9.85901 9.90464 9.85901C10.95 9.85901 11.1562 9.80588 11.1562 9.80588L11.1593 9.46995C11.1593 9.46995 12.7781 8.68245 12.8593 8.57307C12.9281 8.48245 12.9515 7.36526 12.7625 7.2637ZM11.1046 8.6887C11.1046 8.6887 11.1562 8.45901 11.0484 8.40588C10.9406 8.3512 9.09058 8.3762 8.9437 8.38401C8.79683 8.39182 8.79683 8.65432 8.79683 8.65432L7.60933 7.94651V7.83088L12.0312 7.86213L12.039 7.99338L11.1046 8.6887Z" fill="#CECDD2"/>
<path d="M9.25933 8.49609C9.11245 8.49609 9.02808 8.64922 9.02808 8.91328C9.02808 9.16016 9.11245 9.36797 9.29839 9.35234C9.45151 9.33984 9.50464 9.10547 9.49058 8.89766C9.47651 8.65078 9.44526 8.49609 9.25933 8.49609Z" fill="#FDFFFF"/>
<path d="M4.52661 14.8583C4.52661 18.6021 7.97192 20.1912 10.2235 20.124C12.8469 20.0458 15.6157 18.0552 15.436 14.4833C15.2657 11.099 12.3954 9.59429 9.92974 9.61147C7.06411 9.63335 4.52661 11.588 4.52661 14.8583Z" fill="#CECDD2"/>
<path d="M10.0829 19.4273C10.0438 19.4273 10.0032 19.4273 9.96412 19.4258C8.79225 19.3867 7.63443 18.893 6.78756 18.0727C5.88131 17.1945 5.38443 16.007 5.39068 14.7305C5.40475 11.6133 8.12975 10.168 9.97818 10.168H9.99381C12.4985 10.1789 14.5547 12.1258 14.6126 14.7648C14.6376 15.9398 14.1563 17.1727 13.2126 18.1008C12.3313 18.9648 11.1626 19.4273 10.0829 19.4273ZM9.97506 10.6867C8.31725 10.6867 5.86568 12.043 5.85943 14.7305C5.85475 16.7398 7.41099 18.8055 10.0032 18.893C10.9907 18.9242 12.0079 18.5461 12.8297 17.7383C13.6829 16.8992 14.1626 15.818 14.1454 14.7711C14.1047 12.5008 12.2485 10.6945 9.99537 10.6836C9.99225 10.6836 9.97975 10.6867 9.97506 10.6867Z" fill="#9B9B9D"/>
<path d="M9.07654 10.1043C8.96872 9.95584 7.86404 9.99802 6.67498 11.0215C5.49373 12.0386 5.31716 13.1636 5.52966 13.223C5.77185 13.2902 6.06716 12.2027 7.08747 11.2886C8.02497 10.4527 9.2906 10.3996 9.07654 10.1043ZM13.7312 14.2058C13.3547 14.259 13.7453 15.3871 12.8718 16.6496C12.114 17.7449 11.2547 18.1418 11.3547 18.3824C11.489 18.7043 12.8656 17.9027 13.5031 16.5965C14.0797 15.4152 14.0109 14.1668 13.7312 14.2058Z" fill="#FEFFFA"/>
<path d="M3.98591 1.08156C3.88747 1.17218 7.65153 7.87531 7.65153 7.87531C7.65153 7.87531 8.28278 7.95656 9.69216 7.96906C11.1015 7.98156 11.8 7.88781 11.8 7.88781C11.8 7.88781 8.87341 1.14875 8.69841 1.08156C8.61247 1.04718 7.45309 1.03468 6.32028 1.02218C5.18591 1.00812 4.07966 0.994059 3.98591 1.08156Z" fill="#2E9DF4"/>
<path d="M8.88279 13.9923C9.04529 13.9939 9.19061 13.7736 9.32498 13.6392C9.61092 13.3517 9.91092 13.1236 10.2531 13.4329C11.0937 14.197 9.40623 14.972 8.76561 16.0314C8.28748 16.822 8.19061 17.4298 8.32342 17.5923C8.45623 17.7548 11.689 17.747 11.7328 17.6657C11.7765 17.5845 11.8219 16.5017 11.7469 16.4501C11.6719 16.3986 10.0828 16.4282 10.0828 16.4282C10.0828 16.4282 10.2156 16.1189 10.7609 15.647C11.3594 15.1298 11.839 14.4189 11.7109 13.5782C11.4453 11.8407 9.69529 11.7767 8.93748 12.3814C8.19842 12.9704 8.35779 13.9861 8.88279 13.9923Z" fill="#9B9B9D"/>
</g>
<defs>
<clipPath id="clip0_613_16677">
<rect width="20" height="20" fill="white" transform="translate(0 0.5)"/>
</clipPath>
</defs>
</svg>
