<svg width="20" height="21" viewBox="0 0 20 21" fill="none" xmlns="http://www.w3.org/2000/svg">
<g clip-path="url(#clip0_613_16665)">
<path d="M10.7953 1.16339C10.6266 1.31339 9.31409 3.91808 9.31409 3.91808L8.33752 7.85714L12.1375 7.5087C12.1375 7.5087 15.2985 1.63058 15.3625 1.49464C15.4766 1.24776 15.5375 1.1462 15.1016 1.1462C14.6657 1.14464 10.9531 1.02276 10.7953 1.16339Z" fill="#176CC7"/>
<path d="M12.7624 7.2637C12.5734 7.16213 7.00463 7.07463 6.87338 7.2637C6.75463 7.43557 6.77182 8.22151 6.82963 8.32307C6.88744 8.42463 8.75932 9.29495 8.75932 9.29495L8.75775 9.61213C8.75775 9.61213 8.86088 9.86057 9.90463 9.86057C10.9484 9.86057 11.0562 9.64963 11.0562 9.64963L11.0656 9.32932C11.0656 9.32932 12.7046 8.51057 12.7906 8.4387C12.8781 8.36526 12.9515 7.36526 12.7624 7.2637ZM11.0468 8.56526C11.0468 8.56526 11.0421 8.34651 10.9343 8.29182C10.8265 8.23713 9.09057 8.24651 8.94369 8.25432C8.79682 8.26213 8.79682 8.52463 8.79682 8.52463L7.60932 7.94651V7.83088L12.0312 7.86213L12.039 7.99338L11.0468 8.56526Z" fill="#FFCD33"/>
<path d="M9.25933 8.49609C9.11245 8.49609 9.02808 8.64922 9.02808 8.91328C9.02808 9.16016 9.11245 9.36797 9.29839 9.35234C9.45151 9.33984 9.50464 9.10547 9.49058 8.89766C9.47651 8.65078 9.44526 8.49609 9.25933 8.49609Z" fill="#FDFFFF"/>
<path d="M4.52808 14.6755C4.52808 18.4193 7.91245 20.0865 10.1625 20.0068C12.6437 19.9177 15.6156 17.9833 15.4359 14.4115C15.2656 11.0271 12.4187 9.4224 9.95308 9.43959C7.08745 9.4599 4.52808 11.4052 4.52808 14.6755Z" fill="#FFCD33"/>
<path d="M10.0829 19.3551C10.0438 19.3551 10.0032 19.3551 9.96412 19.3535C8.79225 19.3145 7.63443 18.8207 6.78756 18.0004C5.88131 17.1223 5.38443 15.9348 5.39068 14.6582C5.40475 11.541 8.12975 10.0957 9.97818 10.0957H9.99381C12.4985 10.1066 14.5547 12.0535 14.6126 14.6926C14.6376 15.8676 14.1563 17.1004 13.2126 18.0285C12.3313 18.8926 11.1626 19.3551 10.0829 19.3551ZM9.97506 10.6145C8.31725 10.6145 5.86568 11.9707 5.85943 14.6582C5.85475 16.6676 7.41099 18.7332 10.0032 18.8207C10.9907 18.852 12.0079 18.4738 12.8297 17.666C13.6829 16.827 14.1626 15.7457 14.1454 14.6988C14.1079 12.4285 12.2516 10.6223 9.9985 10.6129C9.99225 10.6129 9.97975 10.6145 9.97506 10.6145Z" fill="#F39439"/>
<path d="M9.03442 9.97005C8.92661 9.82162 7.70474 9.84974 6.55005 10.9779C5.43599 12.0669 5.31567 13.0935 5.52974 13.1529C5.77192 13.2201 6.06724 12.1326 7.08755 11.2185C8.02505 10.381 9.25005 10.2654 9.03442 9.97005ZM13.761 14.0122C13.3844 14.0654 13.775 15.1935 12.9016 16.456C12.1438 17.5513 11.2844 17.9482 11.3844 18.1888C11.5188 18.5107 12.8954 17.7091 13.5329 16.4029C14.111 15.2201 14.0422 13.9716 13.761 14.0122Z" fill="#FEFFFA"/>
<path d="M8.72656 12.535C8.64531 12.6553 8.71874 13.71 8.76718 13.7569C8.86093 13.8506 9.57343 13.5147 9.57343 13.5147L9.54687 16.335C9.54687 16.335 9.02343 16.3287 8.96874 16.3491C8.86093 16.3897 8.87499 17.4772 8.95468 17.5303C9.03437 17.5834 11.1703 17.6116 11.2516 17.5037C11.3328 17.3959 11.3125 16.4444 11.275 16.4006C11.2078 16.3194 10.6969 16.3522 10.6969 16.3522C10.6969 16.3522 10.7406 12.1991 10.7266 12.0662C10.7125 11.9334 10.5656 11.8506 10.3906 11.8912C10.2156 11.9319 8.77812 12.4569 8.72656 12.535Z" fill="#F39439"/>
<path d="M3.98591 1.08156C3.88747 1.17218 7.65153 7.87531 7.65153 7.87531C7.65153 7.87531 8.28278 7.95656 9.69216 7.96906C11.1015 7.98156 11.8 7.88781 11.8 7.88781C11.8 7.88781 8.87341 1.14875 8.69841 1.08156C8.61247 1.04718 7.45309 1.03468 6.32028 1.02218C5.18591 1.00812 4.07966 0.994059 3.98591 1.08156Z" fill="#2E9DF4"/>
</g>
<defs>
<clipPath id="clip0_613_16665">
<rect width="20" height="20" fill="white" transform="translate(0 0.5)"/>
</clipPath>
</defs>
</svg>
