<svg width="20" height="21" viewBox="0 0 20 21" fill="none" xmlns="http://www.w3.org/2000/svg">
<g clip-path="url(#clip0_613_16689)">
<path d="M10.7953 1.16339C10.6266 1.31339 9.31409 3.91808 9.31409 3.91808L8.33752 7.85714L12.1375 7.5087C12.1375 7.5087 15.2985 1.63058 15.3625 1.49464C15.4766 1.24776 15.5375 1.1462 15.1016 1.1462C14.6657 1.14464 10.9531 1.02276 10.7953 1.16339Z" fill="#176CC7"/>
<path d="M12.7625 7.2637C12.5734 7.16213 7.00464 7.07463 6.87339 7.2637C6.75464 7.43557 6.82183 8.33713 6.86714 8.44495C6.94839 8.63245 8.74683 9.44963 8.74683 9.44963L8.71245 9.82151C8.71245 9.82151 8.85933 9.85901 9.90464 9.85901C10.95 9.85901 11.1562 9.80588 11.1562 9.80588L11.1593 9.46995C11.1593 9.46995 12.7781 8.68245 12.8593 8.57307C12.9281 8.48245 12.9515 7.36526 12.7625 7.2637ZM11.1046 8.6887C11.1046 8.6887 11.1562 8.45901 11.0484 8.40588C10.9406 8.3512 9.09058 8.3762 8.9437 8.38401C8.79683 8.39182 8.79683 8.65432 8.79683 8.65432L7.6312 8.05432L7.60933 7.83088L12.0312 7.86213L12.0156 8.07307L11.1046 8.6887Z" fill="#E99C49"/>
<path d="M9.25933 8.60742C9.11245 8.60742 9.02808 8.76055 9.02808 9.02461C9.02808 9.27148 9.11245 9.4793 9.29839 9.46367C9.45151 9.45117 9.50464 9.2168 9.49058 9.00898C9.47651 8.76055 9.44526 8.60742 9.25933 8.60742Z" fill="#FDFFFF"/>
<path d="M4.57971 14.8896C4.57971 18.6333 7.9719 20.1912 10.2235 20.124C12.8469 20.0458 15.6688 18.0552 15.436 14.4833C15.2172 11.1318 12.3953 9.59428 9.92971 9.61147C7.06409 9.63335 4.57971 11.6193 4.57971 14.8896Z" fill="#E99C49"/>
<path d="M10.1047 19.5582C10.0657 19.5582 10.025 19.5582 9.98597 19.5566C8.8141 19.5176 7.65628 19.0238 6.80941 18.2035C5.90316 17.3254 5.40628 16.1379 5.41253 14.8613C5.4266 11.7441 8.1516 10.2988 10 10.2988H10.0157C12.5203 10.3098 14.5766 12.2566 14.6344 14.8957C14.6594 16.0707 14.2844 17.2395 13.3407 18.1676C12.4594 19.0301 11.1844 19.5582 10.1047 19.5582ZM9.99691 10.8176C8.3391 10.8176 5.88753 12.1738 5.88128 14.8613C5.8766 16.8707 7.43285 18.9363 10.025 19.0238C11.0125 19.0551 12.1266 18.6895 12.9469 17.8832C13.8 17.0441 14.1828 15.9504 14.1657 14.9035C14.1282 12.6332 12.2719 10.827 10.0188 10.8176C10.0141 10.8145 10.0016 10.8176 9.99691 10.8176Z" fill="#CE7C57"/>
<path d="M9.07654 10.1043C8.96872 9.95584 7.86404 9.99802 6.67497 11.0215C5.49373 12.0386 5.31716 13.1636 5.52966 13.223C5.77185 13.2902 6.06716 12.2027 7.08747 11.2886C8.02497 10.4527 9.2906 10.3996 9.07654 10.1043ZM13.825 14.1933C13.4484 14.2465 13.839 15.3746 12.9656 16.6371C12.2078 17.7324 11.3484 18.1293 11.4484 18.3699C11.5828 18.6918 12.9593 17.8902 13.5968 16.584C14.1734 15.4011 14.1047 14.1527 13.825 14.1933Z" fill="#FEFFFA"/>
<path d="M3.98591 1.08156C3.88747 1.17218 7.65153 7.87531 7.65153 7.87531C7.65153 7.87531 8.28278 7.95656 9.69216 7.96906C11.1015 7.98156 11.8 7.88781 11.8 7.88781C11.8 7.88781 8.87341 1.14875 8.69841 1.08156C8.61247 1.04718 7.45309 1.03468 6.32028 1.02218C5.18591 1.00812 4.07966 0.994059 3.98591 1.08156Z" fill="#2E9DF4"/>
<path d="M11.711 13.5801C11.5297 12.0098 9.70162 11.8785 8.94381 12.4816C8.20631 13.0691 8.27662 13.8879 8.79381 13.9832C9.20162 14.0582 9.30787 13.7348 9.42662 13.5863C9.69537 13.2535 10.1235 13.2223 10.4032 13.4894C10.7204 13.7941 10.5251 14.5223 10.0485 14.5519C9.69381 14.5738 9.51412 14.5551 9.46881 14.616C9.40475 14.7019 9.41412 15.3785 9.47975 15.4535C9.55475 15.5394 9.85475 15.4863 10.1126 15.4957C10.4672 15.5098 10.8438 16.0348 10.5954 16.4285C10.3376 16.8363 9.65162 16.6535 9.40475 16.4066C9.07819 16.0801 8.75162 16.2676 8.64225 16.3957C8.47037 16.5988 8.28756 17.0613 8.92194 17.5113C9.55475 17.9613 11.4751 18.0473 11.8626 16.6535C12.2001 15.4363 11.4126 14.9363 11.4126 14.9363C11.4126 14.9363 11.8141 14.4754 11.711 13.5801Z" fill="#CE7C57"/>
</g>
<defs>
<clipPath id="clip0_613_16689">
<rect width="20" height="20" fill="white" transform="translate(0 0.5)"/>
</clipPath>
</defs>
</svg>
